solid OpenSCAD_Model
  facet normal 1 0 0
    outer loop
      vertex 198.438 128.587 6.35
      vertex 198.438 138.113 19.05
      vertex 198.438 128.587 19.05
    endloop
  endfacet
  facet normal 1 0 0
    outer loop
      vertex 198.438 138.113 19.05
      vertex 198.438 128.587 6.35
      vertex 198.438 138.113 0
    endloop
  endfacet
  facet normal 1 0 0
    outer loop
      vertex 198.438 0 0
      vertex 198.438 128.587 6.35
      vertex 198.438 0 6.35
    endloop
  endfacet
  facet normal 1 0 0
    outer loop
      vertex 198.438 128.587 6.35
      vertex 198.438 0 0
      vertex 198.438 138.113 0
    endloop
  endfacet
  facet normal 0 0 1
    outer loop
      vertex 76.2 127.794 6.35
      vertex 0 128.587 6.35
      vertex 76.2 124.619 6.35
    endloop
  endfacet
  facet normal 0 0 1
    outer loop
      vertex 76.2313 128.291 6.35
      vertex 0 128.587 6.35
      vertex 76.2 127.794 6.35
    endloop
  endfacet
  facet normal -0 0 1
    outer loop
      vertex 0 128.587 6.35
      vertex 76.2313 128.291 6.35
      vertex 76.2878 128.587 6.35
    endloop
  endfacet
  facet normal 0 0 1
    outer loop
      vertex 122.238 124.619 6.35
      vertex 198.438 128.587 6.35
      vertex 122.238 127.794 6.35
    endloop
  endfacet
  facet normal 0 0 1
    outer loop
      vertex 198.438 128.587 6.35
      vertex 122.206 128.291 6.35
      vertex 122.238 127.794 6.35
    endloop
  endfacet
  facet normal 0 -0 1
    outer loop
      vertex 122.206 128.291 6.35
      vertex 198.438 128.587 6.35
      vertex 122.15 128.587 6.35
    endloop
  endfacet
  facet normal 0 0 1
    outer loop
      vertex 122.206 124.121 6.35
      vertex 198.438 128.587 6.35
      vertex 122.238 124.619 6.35
    endloop
  endfacet
  facet normal 0 0 1
    outer loop
      vertex 122.113 123.632 6.35
      vertex 198.438 128.587 6.35
      vertex 122.206 124.121 6.35
    endloop
  endfacet
  facet normal 0 0 1
    outer loop
      vertex 121.959 123.158 6.35
      vertex 198.438 128.587 6.35
      vertex 122.113 123.632 6.35
    endloop
  endfacet
  facet normal 0 0 1
    outer loop
      vertex 121.747 122.707 6.35
      vertex 198.438 128.587 6.35
      vertex 121.959 123.158 6.35
    endloop
  endfacet
  facet normal 0 0 1
    outer loop
      vertex 121.48 122.286 6.35
      vertex 198.438 128.587 6.35
      vertex 121.747 122.707 6.35
    endloop
  endfacet
  facet normal 0 0 1
    outer loop
      vertex 121.162 121.902 6.35
      vertex 198.438 128.587 6.35
      vertex 121.48 122.286 6.35
    endloop
  endfacet
  facet normal 0 0 1
    outer loop
      vertex 120.799 121.561 6.35
      vertex 198.438 128.587 6.35
      vertex 121.162 121.902 6.35
    endloop
  endfacet
  facet normal 0 0 1
    outer loop
      vertex 198.438 128.587 6.35
      vertex 120.799 121.561 6.35
      vertex 198.438 0 6.35
    endloop
  endfacet
  facet normal -0 0 1
    outer loop
      vertex 120.395 121.268 6.35
      vertex 198.438 0 6.35
      vertex 120.799 121.561 6.35
    endloop
  endfacet
  facet normal -0 0 1
    outer loop
      vertex 119.959 121.028 6.35
      vertex 198.438 0 6.35
      vertex 120.395 121.268 6.35
    endloop
  endfacet
  facet normal -0 0 1
    outer loop
      vertex 119.495 120.844 6.35
      vertex 198.438 0 6.35
      vertex 119.959 121.028 6.35
    endloop
  endfacet
  facet normal -0 0 1
    outer loop
      vertex 119.012 120.72 6.35
      vertex 198.438 0 6.35
      vertex 119.495 120.844 6.35
    endloop
  endfacet
  facet normal -0 0 1
    outer loop
      vertex 118.518 120.658 6.35
      vertex 198.438 0 6.35
      vertex 119.012 120.72 6.35
    endloop
  endfacet
  facet normal -0 0 1
    outer loop
      vertex 79.9195 120.658 6.35
      vertex 198.438 0 6.35
      vertex 118.518 120.658 6.35
    endloop
  endfacet
  facet normal 0 0 1
    outer loop
      vertex 0 0 6.35
      vertex 79.9195 120.658 6.35
      vertex 79.4251 120.72 6.35
    endloop
  endfacet
  facet normal 0 0 1
    outer loop
      vertex 0 0 6.35
      vertex 79.4251 120.72 6.35
      vertex 78.9423 120.844 6.35
    endloop
  endfacet
  facet normal 0 0 1
    outer loop
      vertex 0 0 6.35
      vertex 78.9423 120.844 6.35
      vertex 78.4789 121.028 6.35
    endloop
  endfacet
  facet normal 0 0 1
    outer loop
      vertex 0 0 6.35
      vertex 78.4789 121.028 6.35
      vertex 78.0422 121.268 6.35
    endloop
  endfacet
  facet normal 0 0 1
    outer loop
      vertex 0 0 6.35
      vertex 78.0422 121.268 6.35
      vertex 77.639 121.561 6.35
    endloop
  endfacet
  facet normal 0 0 1
    outer loop
      vertex 0 128.587 6.35
      vertex 77.639 121.561 6.35
      vertex 77.2757 121.902 6.35
    endloop
  endfacet
  facet normal 0 0 1
    outer loop
      vertex 0 128.587 6.35
      vertex 76.2313 124.121 6.35
      vertex 76.2 124.619 6.35
    endloop
  endfacet
  facet normal 0 0 1
    outer loop
      vertex 0 128.587 6.35
      vertex 76.3247 123.632 6.35
      vertex 76.2313 124.121 6.35
    endloop
  endfacet
  facet normal 0 0 1
    outer loop
      vertex 0 128.587 6.35
      vertex 76.4787 123.158 6.35
      vertex 76.3247 123.632 6.35
    endloop
  endfacet
  facet normal 0 0 1
    outer loop
      vertex 0 128.587 6.35
      vertex 76.6909 122.707 6.35
      vertex 76.4787 123.158 6.35
    endloop
  endfacet
  facet normal 0 0 1
    outer loop
      vertex 0 128.587 6.35
      vertex 76.958 122.286 6.35
      vertex 76.6909 122.707 6.35
    endloop
  endfacet
  facet normal 0 0 1
    outer loop
      vertex 0 128.587 6.35
      vertex 77.2757 121.902 6.35
      vertex 76.958 122.286 6.35
    endloop
  endfacet
  facet normal 0 0 1
    outer loop
      vertex 77.639 121.561 6.35
      vertex 0 128.587 6.35
      vertex 0 0 6.35
    endloop
  endfacet
  facet normal 0 0 1
    outer loop
      vertex 79.9195 120.658 6.35
      vertex 0 0 6.35
      vertex 198.438 0 6.35
    endloop
  endfacet
  facet normal 0 0 -1
    outer loop
      vertex 122.15 128.587 6.35
      vertex 121.959 129.255 6.35
      vertex 122.113 128.781 6.35
    endloop
  endfacet
  facet normal 0 0 -1
    outer loop
      vertex 122.15 128.587 6.35
      vertex 121.747 129.706 6.35
      vertex 121.959 129.255 6.35
    endloop
  endfacet
  facet normal 0 0 -1
    outer loop
      vertex 122.15 128.587 6.35
      vertex 121.48 130.127 6.35
      vertex 121.747 129.706 6.35
    endloop
  endfacet
  facet normal 0 0 -1
    outer loop
      vertex 122.15 128.587 6.35
      vertex 121.162 130.511 6.35
      vertex 121.48 130.127 6.35
    endloop
  endfacet
  facet normal 0 0 -1
    outer loop
      vertex 122.15 128.587 6.35
      vertex 120.799 130.852 6.35
      vertex 121.162 130.511 6.35
    endloop
  endfacet
  facet normal 0 0 -1
    outer loop
      vertex 122.15 128.587 6.35
      vertex 120.395 131.145 6.35
      vertex 120.799 130.852 6.35
    endloop
  endfacet
  facet normal 0 0 -1
    outer loop
      vertex 122.15 128.587 6.35
      vertex 119.959 131.385 6.35
      vertex 120.395 131.145 6.35
    endloop
  endfacet
  facet normal 0 0 -1
    outer loop
      vertex 122.15 128.587 6.35
      vertex 119.495 131.568 6.35
      vertex 119.959 131.385 6.35
    endloop
  endfacet
  facet normal 0 0 -1
    outer loop
      vertex 122.15 128.587 6.35
      vertex 119.012 131.692 6.35
      vertex 119.495 131.568 6.35
    endloop
  endfacet
  facet normal 0 0 -1
    outer loop
      vertex 122.15 128.587 6.35
      vertex 118.518 131.755 6.35
      vertex 119.012 131.692 6.35
    endloop
  endfacet
  facet normal 0 0 -1
    outer loop
      vertex 122.15 128.587 6.35
      vertex 79.9195 131.755 6.35
      vertex 118.518 131.755 6.35
    endloop
  endfacet
  facet normal 0 0 -1
    outer loop
      vertex 76.2878 128.587 6.35
      vertex 79.9195 131.755 6.35
      vertex 122.15 128.587 6.35
    endloop
  endfacet
  facet normal 0 0 -1
    outer loop
      vertex 79.9195 131.755 6.35
      vertex 76.2878 128.587 6.35
      vertex 79.4251 131.692 6.35
    endloop
  endfacet
  facet normal 0 0 -1
    outer loop
      vertex 79.4251 131.692 6.35
      vertex 76.2878 128.587 6.35
      vertex 78.9423 131.568 6.35
    endloop
  endfacet
  facet normal 0 0 -1
    outer loop
      vertex 78.9423 131.568 6.35
      vertex 76.2878 128.587 6.35
      vertex 78.4789 131.385 6.35
    endloop
  endfacet
  facet normal 0 0 -1
    outer loop
      vertex 78.4789 131.385 6.35
      vertex 76.2878 128.587 6.35
      vertex 78.0422 131.145 6.35
    endloop
  endfacet
  facet normal 0 0 -1
    outer loop
      vertex 78.0422 131.145 6.35
      vertex 76.2878 128.587 6.35
      vertex 77.639 130.852 6.35
    endloop
  endfacet
  facet normal 0 0 -1
    outer loop
      vertex 77.639 130.852 6.35
      vertex 76.2878 128.587 6.35
      vertex 77.2757 130.511 6.35
    endloop
  endfacet
  facet normal 0 0 -1
    outer loop
      vertex 77.2757 130.511 6.35
      vertex 76.2878 128.587 6.35
      vertex 76.958 130.127 6.35
    endloop
  endfacet
  facet normal 0 0 -1
    outer loop
      vertex 76.958 130.127 6.35
      vertex 76.2878 128.587 6.35
      vertex 76.6909 129.706 6.35
    endloop
  endfacet
  facet normal 0 0 -1
    outer loop
      vertex 76.6909 129.706 6.35
      vertex 76.2878 128.587 6.35
      vertex 76.4787 129.255 6.35
    endloop
  endfacet
  facet normal 0 0 -1
    outer loop
      vertex 76.4787 129.255 6.35
      vertex 76.2878 128.587 6.35
      vertex 76.3247 128.781 6.35
    endloop
  endfacet
  facet normal 0 0 -1
    outer loop
      vertex 121.162 121.902 0
      vertex 198.438 138.113 0
      vertex 198.438 0 0
    endloop
  endfacet
  facet normal 0 0 -1
    outer loop
      vertex 198.438 138.113 0
      vertex 122.206 124.121 0
      vertex 122.238 124.619 0
    endloop
  endfacet
  facet normal 0 0 -1
    outer loop
      vertex 198.438 138.113 0
      vertex 122.113 123.632 0
      vertex 122.206 124.121 0
    endloop
  endfacet
  facet normal 0 0 -1
    outer loop
      vertex 198.438 138.113 0
      vertex 121.959 123.158 0
      vertex 122.113 123.632 0
    endloop
  endfacet
  facet normal 0 0 -1
    outer loop
      vertex 198.438 138.113 0
      vertex 121.747 122.707 0
      vertex 121.959 123.158 0
    endloop
  endfacet
  facet normal 0 0 -1
    outer loop
      vertex 198.438 138.113 0
      vertex 121.48 122.286 0
      vertex 121.747 122.707 0
    endloop
  endfacet
  facet normal 0 0 -1
    outer loop
      vertex 198.438 138.113 0
      vertex 121.162 121.902 0
      vertex 121.48 122.286 0
    endloop
  endfacet
  facet normal 0 0 -1
    outer loop
      vertex 198.438 0 0
      vertex 120.799 121.561 0
      vertex 121.162 121.902 0
    endloop
  endfacet
  facet normal 0 0 -1
    outer loop
      vertex 198.438 0 0
      vertex 120.395 121.268 0
      vertex 120.799 121.561 0
    endloop
  endfacet
  facet normal 0 0 -1
    outer loop
      vertex 198.438 0 0
      vertex 119.959 121.028 0
      vertex 120.395 121.268 0
    endloop
  endfacet
  facet normal 0 0 -1
    outer loop
      vertex 198.438 0 0
      vertex 119.495 120.844 0
      vertex 119.959 121.028 0
    endloop
  endfacet
  facet normal 0 0 -1
    outer loop
      vertex 198.438 0 0
      vertex 119.012 120.72 0
      vertex 119.495 120.844 0
    endloop
  endfacet
  facet normal 0 0 -1
    outer loop
      vertex 198.438 0 0
      vertex 118.518 120.658 0
      vertex 119.012 120.72 0
    endloop
  endfacet
  facet normal 0 0 -1
    outer loop
      vertex 198.438 0 0
      vertex 79.9195 120.658 0
      vertex 118.518 120.658 0
    endloop
  endfacet
  facet normal 0 0 -1
    outer loop
      vertex 0 0 0
      vertex 79.9195 120.658 0
      vertex 198.438 0 0
    endloop
  endfacet
  facet normal -0 0 -1
    outer loop
      vertex 79.9195 120.658 0
      vertex 0 0 0
      vertex 79.4251 120.72 0
    endloop
  endfacet
  facet normal -0 0 -1
    outer loop
      vertex 79.4251 120.72 0
      vertex 0 0 0
      vertex 78.9423 120.844 0
    endloop
  endfacet
  facet normal -0 0 -1
    outer loop
      vertex 78.9423 120.844 0
      vertex 0 0 0
      vertex 78.4789 121.028 0
    endloop
  endfacet
  facet normal -0 0 -1
    outer loop
      vertex 78.4789 121.028 0
      vertex 0 0 0
      vertex 78.0422 121.268 0
    endloop
  endfacet
  facet normal -0 0 -1
    outer loop
      vertex 78.0422 121.268 0
      vertex 0 0 0
      vertex 77.639 121.561 0
    endloop
  endfacet
  facet normal 0 0 -1
    outer loop
      vertex 76.2313 124.121 0
      vertex 0 138.113 0
      vertex 76.2 124.619 0
    endloop
  endfacet
  facet normal 0 0 -1
    outer loop
      vertex 76.3247 123.632 0
      vertex 0 138.113 0
      vertex 76.2313 124.121 0
    endloop
  endfacet
  facet normal 0 0 -1
    outer loop
      vertex 76.4787 123.158 0
      vertex 0 138.113 0
      vertex 76.3247 123.632 0
    endloop
  endfacet
  facet normal 0 0 -1
    outer loop
      vertex 76.6909 122.707 0
      vertex 0 138.113 0
      vertex 76.4787 123.158 0
    endloop
  endfacet
  facet normal 0 0 -1
    outer loop
      vertex 76.958 122.286 0
      vertex 0 138.113 0
      vertex 76.6909 122.707 0
    endloop
  endfacet
  facet normal 0 0 -1
    outer loop
      vertex 77.2757 121.902 0
      vertex 0 138.113 0
      vertex 76.958 122.286 0
    endloop
  endfacet
  facet normal 0 0 -1
    outer loop
      vertex 0 138.113 0
      vertex 77.2757 121.902 0
      vertex 0 0 0
    endloop
  endfacet
  facet normal -0 0 -1
    outer loop
      vertex 77.639 121.561 0
      vertex 0 0 0
      vertex 77.2757 121.902 0
    endloop
  endfacet
  facet normal 0 0 -1
    outer loop
      vertex 122.238 127.794 0
      vertex 198.438 138.113 0
      vertex 122.238 124.619 0
    endloop
  endfacet
  facet normal 0 0 -1
    outer loop
      vertex 122.206 128.291 0
      vertex 198.438 138.113 0
      vertex 122.238 127.794 0
    endloop
  endfacet
  facet normal 0 0 -1
    outer loop
      vertex 122.113 128.781 0
      vertex 198.438 138.113 0
      vertex 122.206 128.291 0
    endloop
  endfacet
  facet normal 0 0 -1
    outer loop
      vertex 121.959 129.255 0
      vertex 198.438 138.113 0
      vertex 122.113 128.781 0
    endloop
  endfacet
  facet normal 0 0 -1
    outer loop
      vertex 121.747 129.706 0
      vertex 198.438 138.113 0
      vertex 121.959 129.255 0
    endloop
  endfacet
  facet normal 0 0 -1
    outer loop
      vertex 121.48 130.127 0
      vertex 198.438 138.113 0
      vertex 121.747 129.706 0
    endloop
  endfacet
  facet normal 0 0 -1
    outer loop
      vertex 121.162 130.511 0
      vertex 198.438 138.113 0
      vertex 121.48 130.127 0
    endloop
  endfacet
  facet normal 0 0 -1
    outer loop
      vertex 120.799 130.852 0
      vertex 198.438 138.113 0
      vertex 121.162 130.511 0
    endloop
  endfacet
  facet normal 0 0 -1
    outer loop
      vertex 120.395 131.145 0
      vertex 198.438 138.113 0
      vertex 120.799 130.852 0
    endloop
  endfacet
  facet normal 0 0 -1
    outer loop
      vertex 119.959 131.385 0
      vertex 198.438 138.113 0
      vertex 120.395 131.145 0
    endloop
  endfacet
  facet normal 0 0 -1
    outer loop
      vertex 119.495 131.568 0
      vertex 198.438 138.113 0
      vertex 119.959 131.385 0
    endloop
  endfacet
  facet normal 0 0 -1
    outer loop
      vertex 119.012 131.692 0
      vertex 198.438 138.113 0
      vertex 119.495 131.568 0
    endloop
  endfacet
  facet normal 0 0 -1
    outer loop
      vertex 118.518 131.755 0
      vertex 198.438 138.113 0
      vertex 119.012 131.692 0
    endloop
  endfacet
  facet normal 0 0 -1
    outer loop
      vertex 79.9195 131.755 0
      vertex 198.438 138.113 0
      vertex 118.518 131.755 0
    endloop
  endfacet
  facet normal 0 0 -1
    outer loop
      vertex 76.2 124.619 0
      vertex 0 138.113 0
      vertex 76.2 127.794 0
    endloop
  endfacet
  facet normal 0 0 -1
    outer loop
      vertex 76.2 127.794 0
      vertex 0 138.113 0
      vertex 76.2313 128.291 0
    endloop
  endfacet
  facet normal 0 0 -1
    outer loop
      vertex 76.2313 128.291 0
      vertex 0 138.113 0
      vertex 76.3247 128.781 0
    endloop
  endfacet
  facet normal 0 0 -1
    outer loop
      vertex 76.3247 128.781 0
      vertex 0 138.113 0
      vertex 76.4787 129.255 0
    endloop
  endfacet
  facet normal 0 0 -1
    outer loop
      vertex 79.9195 131.755 0
      vertex 0 138.113 0
      vertex 198.438 138.113 0
    endloop
  endfacet
  facet normal 0 0 -1
    outer loop
      vertex 79.4251 131.692 0
      vertex 0 138.113 0
      vertex 79.9195 131.755 0
    endloop
  endfacet
  facet normal 0 0 -1
    outer loop
      vertex 78.9423 131.568 0
      vertex 0 138.113 0
      vertex 79.4251 131.692 0
    endloop
  endfacet
  facet normal 0 0 -1
    outer loop
      vertex 78.4789 131.385 0
      vertex 0 138.113 0
      vertex 78.9423 131.568 0
    endloop
  endfacet
  facet normal 0 0 -1
    outer loop
      vertex 78.0422 131.145 0
      vertex 0 138.113 0
      vertex 78.4789 131.385 0
    endloop
  endfacet
  facet normal 0 0 -1
    outer loop
      vertex 77.639 130.852 0
      vertex 0 138.113 0
      vertex 78.0422 131.145 0
    endloop
  endfacet
  facet normal 0 0 -1
    outer loop
      vertex 77.2757 130.511 0
      vertex 0 138.113 0
      vertex 77.639 130.852 0
    endloop
  endfacet
  facet normal 0 0 -1
    outer loop
      vertex 76.958 130.127 0
      vertex 0 138.113 0
      vertex 77.2757 130.511 0
    endloop
  endfacet
  facet normal 0 0 -1
    outer loop
      vertex 76.6909 129.706 0
      vertex 0 138.113 0
      vertex 76.958 130.127 0
    endloop
  endfacet
  facet normal 0 0 -1
    outer loop
      vertex 76.4787 129.255 0
      vertex 0 138.113 0
      vertex 76.6909 129.706 0
    endloop
  endfacet
  facet normal -1 0 0
    outer loop
      vertex 0 138.113 0
      vertex 0 128.587 6.35
      vertex 0 138.113 19.05
    endloop
  endfacet
  facet normal -1 0 0
    outer loop
      vertex 0 0 0
      vertex 0 128.587 6.35
      vertex 0 138.113 0
    endloop
  endfacet
  facet normal -1 -0 0
    outer loop
      vertex 0 128.587 6.35
      vertex 0 0 0
      vertex 0 0 6.35
    endloop
  endfacet
  facet normal -1 -0 0
    outer loop
      vertex 0 138.113 19.05
      vertex 0 128.587 6.35
      vertex 0 128.587 19.05
    endloop
  endfacet
  facet normal 0 1 -0
    outer loop
      vertex 198.438 138.113 0
      vertex 0 138.113 19.05
      vertex 198.438 138.113 19.05
    endloop
  endfacet
  facet normal 0 1 0
    outer loop
      vertex 0 138.113 19.05
      vertex 198.438 138.113 0
      vertex 0 138.113 0
    endloop
  endfacet
  facet normal 0 -1 0
    outer loop
      vertex 0 0 0
      vertex 198.438 0 6.35
      vertex 0 0 6.35
    endloop
  endfacet
  facet normal 0 -1 -0
    outer loop
      vertex 198.438 0 6.35
      vertex 0 0 0
      vertex 198.438 0 0
    endloop
  endfacet
  facet normal -0.368626 0.929578 0
    outer loop
      vertex 119.959 121.028 0
      vertex 119.495 120.844 6.35
      vertex 119.959 121.028 6.35
    endloop
  endfacet
  facet normal -0.368626 0.929578 0
    outer loop
      vertex 119.495 120.844 6.35
      vertex 119.959 121.028 0
      vertex 119.495 120.844 0
    endloop
  endfacet
  facet normal -0.844486 -0.535577 0
    outer loop
      vertex 121.747 129.706 0
      vertex 121.48 130.127 6.35
      vertex 121.48 130.127 0
    endloop
  endfacet
  facet normal -0.844486 -0.535577 0
    outer loop
      vertex 121.48 130.127 6.35
      vertex 121.747 129.706 0
      vertex 121.747 129.706 6.35
    endloop
  endfacet
  facet normal 0.904846 0.425739 0
    outer loop
      vertex 76.6909 122.707 6.35
      vertex 76.4787 123.158 0
      vertex 76.4787 123.158 6.35
    endloop
  endfacet
  facet normal 0.904846 0.425739 0
    outer loop
      vertex 76.4787 123.158 0
      vertex 76.6909 122.707 6.35
      vertex 76.6909 122.707 0
    endloop
  endfacet
  facet normal -0.482227 -0.876046 0
    outer loop
      vertex 119.959 131.385 0
      vertex 120.395 131.145 6.35
      vertex 119.959 131.385 6.35
    endloop
  endfacet
  facet normal -0.482227 -0.876046 -0
    outer loop
      vertex 120.395 131.145 6.35
      vertex 119.959 131.385 0
      vertex 120.395 131.145 0
    endloop
  endfacet
  facet normal 0.12443 0.992228 -0
    outer loop
      vertex 79.9195 120.658 0
      vertex 79.4251 120.72 6.35
      vertex 79.9195 120.658 6.35
    endloop
  endfacet
  facet normal 0.12443 0.992228 0
    outer loop
      vertex 79.4251 120.72 6.35
      vertex 79.9195 120.658 0
      vertex 79.4251 120.72 0
    endloop
  endfacet
  facet normal 0.770486 0.637457 0
    outer loop
      vertex 77.2757 121.902 6.35
      vertex 76.958 122.286 0
      vertex 76.958 122.286 6.35
    endloop
  endfacet
  facet normal 0.770486 0.637457 0
    outer loop
      vertex 76.958 122.286 0
      vertex 77.2757 121.902 6.35
      vertex 77.2757 121.902 0
    endloop
  endfacet
  facet normal -0.982294 -0.187345 0
    outer loop
      vertex 122.113 128.781 0
      vertex 122.15 128.587 6.35
      vertex 122.113 128.781 6.35
    endloop
  endfacet
  facet normal -0.982461 -0.186467 2.77861e-05
    outer loop
      vertex 122.206 128.291 0
      vertex 122.15 128.587 6.35
      vertex 122.113 128.781 0
    endloop
  endfacet
  facet normal -0.98257 -0.185892 0
    outer loop
      vertex 122.15 128.587 6.35
      vertex 122.206 128.291 0
      vertex 122.206 128.291 6.35
    endloop
  endfacet
  facet normal -0.366893 -0.930263 0
    outer loop
      vertex 119.495 131.568 0
      vertex 119.959 131.385 6.35
      vertex 119.495 131.568 6.35
    endloop
  endfacet
  facet normal -0.366893 -0.930263 -0
    outer loop
      vertex 119.959 131.385 6.35
      vertex 119.495 131.568 0
      vertex 119.959 131.385 0
    endloop
  endfacet
  facet normal -0.587099 -0.809515 0
    outer loop
      vertex 120.395 131.145 0
      vertex 120.799 130.852 6.35
      vertex 120.395 131.145 6.35
    endloop
  endfacet
  facet normal -0.587099 -0.809515 -0
    outer loop
      vertex 120.799 130.852 6.35
      vertex 120.395 131.145 0
      vertex 120.799 130.852 0
    endloop
  endfacet
  facet normal 0 1 -0
    outer loop
      vertex 118.518 120.658 0
      vertex 79.9195 120.658 6.35
      vertex 118.518 120.658 6.35
    endloop
  endfacet
  facet normal 0 1 0
    outer loop
      vertex 79.9195 120.658 6.35
      vertex 118.518 120.658 0
      vertex 79.9195 120.658 0
    endloop
  endfacet
  facet normal -1 0 0
    outer loop
      vertex 122.238 124.619 0
      vertex 122.238 127.794 6.35
      vertex 122.238 127.794 0
    endloop
  endfacet
  facet normal -1 -0 0
    outer loop
      vertex 122.238 127.794 6.35
      vertex 122.238 124.619 0
      vertex 122.238 124.619 6.35
    endloop
  endfacet
  facet normal 0 -1 0
    outer loop
      vertex 79.9195 131.755 0
      vertex 118.518 131.755 6.35
      vertex 79.9195 131.755 6.35
    endloop
  endfacet
  facet normal 0 -1 -0
    outer loop
      vertex 118.518 131.755 6.35
      vertex 79.9195 131.755 0
      vertex 118.518 131.755 0
    endloop
  endfacet
  facet normal 1 -0 0
    outer loop
      vertex 76.2 124.619 6.35
      vertex 76.2 127.794 0
      vertex 76.2 127.794 6.35
    endloop
  endfacet
  facet normal 1 0 0
    outer loop
      vertex 76.2 127.794 0
      vertex 76.2 124.619 6.35
      vertex 76.2 124.619 0
    endloop
  endfacet
  facet normal -0.982391 0.186835 0
    outer loop
      vertex 122.113 123.632 0
      vertex 122.206 124.121 6.35
      vertex 122.206 124.121 0
    endloop
  endfacet
  facet normal -0.982391 0.186835 0
    outer loop
      vertex 122.206 124.121 6.35
      vertex 122.113 123.632 0
      vertex 122.113 123.632 6.35
    endloop
  endfacet
  facet normal 0.684375 -0.72913 0
    outer loop
      vertex 77.2757 130.511 0
      vertex 77.639 130.852 6.35
      vertex 77.2757 130.511 6.35
    endloop
  endfacet
  facet normal 0.684375 -0.72913 0
    outer loop
      vertex 77.639 130.852 6.35
      vertex 77.2757 130.511 0
      vertex 77.639 130.852 0
    endloop
  endfacet
  facet normal 0.770486 -0.637457 0
    outer loop
      vertex 76.958 130.127 6.35
      vertex 77.2757 130.511 0
      vertex 77.2757 130.511 6.35
    endloop
  endfacet
  facet normal 0.770486 -0.637457 0
    outer loop
      vertex 77.2757 130.511 0
      vertex 76.958 130.127 6.35
      vertex 76.958 130.127 0
    endloop
  endfacet
  facet normal 0.951064 0.308995 0
    outer loop
      vertex 76.4787 123.158 6.35
      vertex 76.3247 123.632 0
      vertex 76.3247 123.632 6.35
    endloop
  endfacet
  facet normal 0.951064 0.308995 0
    outer loop
      vertex 76.3247 123.632 0
      vertex 76.4787 123.158 6.35
      vertex 76.4787 123.158 0
    endloop
  endfacet
  facet normal -0.951064 0.308995 0
    outer loop
      vertex 121.959 123.158 0
      vertex 122.113 123.632 6.35
      vertex 122.113 123.632 0
    endloop
  endfacet
  facet normal -0.951064 0.308995 0
    outer loop
      vertex 122.113 123.632 6.35
      vertex 121.959 123.158 0
      vertex 121.959 123.158 6.35
    endloop
  endfacet
  facet normal 0.126405 -0.991979 0
    outer loop
      vertex 79.4251 131.692 0
      vertex 79.9195 131.755 6.35
      vertex 79.4251 131.692 6.35
    endloop
  endfacet
  facet normal 0.126405 -0.991979 0
    outer loop
      vertex 79.9195 131.755 6.35
      vertex 79.4251 131.692 0
      vertex 79.9195 131.755 0
    endloop
  endfacet
  facet normal -0.905001 -0.42541 0
    outer loop
      vertex 121.959 129.255 0
      vertex 121.747 129.706 6.35
      vertex 121.747 129.706 0
    endloop
  endfacet
  facet normal -0.905001 -0.42541 0
    outer loop
      vertex 121.747 129.706 6.35
      vertex 121.959 129.255 0
      vertex 121.959 129.255 6.35
    endloop
  endfacet
  facet normal -0.124529 0.992216 0
    outer loop
      vertex 119.012 120.72 0
      vertex 118.518 120.658 6.35
      vertex 119.012 120.72 6.35
    endloop
  endfacet
  facet normal -0.124529 0.992216 0
    outer loop
      vertex 118.518 120.658 6.35
      vertex 119.012 120.72 0
      vertex 118.518 120.658 0
    endloop
  endfacet
  facet normal 0.248761 0.968565 -0
    outer loop
      vertex 79.4251 120.72 0
      vertex 78.9423 120.844 6.35
      vertex 79.4251 120.72 6.35
    endloop
  endfacet
  facet normal 0.248761 0.968565 0
    outer loop
      vertex 78.9423 120.844 6.35
      vertex 79.4251 120.72 0
      vertex 78.9423 120.844 0
    endloop
  endfacet
  facet normal 0.248761 -0.968565 0
    outer loop
      vertex 78.9423 131.568 0
      vertex 79.4251 131.692 6.35
      vertex 78.9423 131.568 6.35
    endloop
  endfacet
  facet normal 0.248761 -0.968565 0
    outer loop
      vertex 79.4251 131.692 6.35
      vertex 78.9423 131.568 0
      vertex 79.4251 131.692 0
    endloop
  endfacet
  facet normal -0.684675 -0.728848 0
    outer loop
      vertex 120.799 130.852 0
      vertex 121.162 130.511 6.35
      vertex 120.799 130.852 6.35
    endloop
  endfacet
  facet normal -0.684675 -0.728848 -0
    outer loop
      vertex 121.162 130.511 6.35
      vertex 120.799 130.852 0
      vertex 121.162 130.511 0
    endloop
  endfacet
  facet normal 0.587861 -0.808962 0
    outer loop
      vertex 77.639 130.852 0
      vertex 78.0422 131.145 6.35
      vertex 77.639 130.852 6.35
    endloop
  endfacet
  facet normal 0.587861 -0.808962 0
    outer loop
      vertex 78.0422 131.145 6.35
      vertex 77.639 130.852 0
      vertex 78.0422 131.145 0
    endloop
  endfacet
  facet normal -0.997942 0.0641248 0
    outer loop
      vertex 122.206 124.121 0
      vertex 122.238 124.619 6.35
      vertex 122.238 124.619 0
    endloop
  endfacet
  facet normal -0.997942 0.0641248 0
    outer loop
      vertex 122.238 124.619 6.35
      vertex 122.206 124.121 0
      vertex 122.206 124.121 6.35
    endloop
  endfacet
  facet normal -0.997934 -0.0642533 0
    outer loop
      vertex 122.238 127.794 0
      vertex 122.206 128.291 6.35
      vertex 122.206 128.291 0
    endloop
  endfacet
  facet normal -0.997934 -0.0642533 0
    outer loop
      vertex 122.206 128.291 6.35
      vertex 122.238 127.794 0
      vertex 122.238 127.794 6.35
    endloop
  endfacet
  facet normal -0.126506 -0.991966 0
    outer loop
      vertex 118.518 131.755 0
      vertex 119.012 131.692 6.35
      vertex 118.518 131.755 6.35
    endloop
  endfacet
  facet normal -0.126506 -0.991966 -0
    outer loop
      vertex 119.012 131.692 6.35
      vertex 118.518 131.755 0
      vertex 119.012 131.692 0
    endloop
  endfacet
  facet normal 0.998031 0.0627276 0
    outer loop
      vertex 76.2313 124.121 6.35
      vertex 76.2 124.619 0
      vertex 76.2 124.619 6.35
    endloop
  endfacet
  facet normal 0.998031 0.0627276 0
    outer loop
      vertex 76.2 124.619 0
      vertex 76.2313 124.121 6.35
      vertex 76.2313 124.121 0
    endloop
  endfacet
  facet normal -0.248665 -0.96859 0
    outer loop
      vertex 119.012 131.692 0
      vertex 119.495 131.568 6.35
      vertex 119.012 131.692 6.35
    endloop
  endfacet
  facet normal -0.248665 -0.96859 -0
    outer loop
      vertex 119.495 131.568 6.35
      vertex 119.012 131.692 0
      vertex 119.495 131.568 0
    endloop
  endfacet
  facet normal 0.982387 -0.186856 0
    outer loop
      vertex 76.2878 128.587 6.35
      vertex 76.3247 128.781 0
      vertex 76.3247 128.781 6.35
    endloop
  endfacet
  facet normal 0.982266 -0.187493 0
    outer loop
      vertex 76.2313 128.291 0
      vertex 76.2878 128.587 6.35
      vertex 76.2313 128.291 6.35
    endloop
  endfacet
  facet normal 0.982314 -0.187241 -1.21862e-05
    outer loop
      vertex 76.2878 128.587 6.35
      vertex 76.2313 128.291 0
      vertex 76.3247 128.781 0
    endloop
  endfacet
  facet normal 0.684375 0.72913 -0
    outer loop
      vertex 77.639 121.561 0
      vertex 77.2757 121.902 6.35
      vertex 77.639 121.561 6.35
    endloop
  endfacet
  facet normal 0.684375 0.72913 0
    outer loop
      vertex 77.2757 121.902 6.35
      vertex 77.639 121.561 0
      vertex 77.2757 121.902 0
    endloop
  endfacet
  facet normal 0.844396 0.53572 0
    outer loop
      vertex 76.958 122.286 6.35
      vertex 76.6909 122.707 0
      vertex 76.6909 122.707 6.35
    endloop
  endfacet
  facet normal 0.844396 0.53572 0
    outer loop
      vertex 76.6909 122.707 0
      vertex 76.958 122.286 6.35
      vertex 76.958 122.286 0
    endloop
  endfacet
  facet normal 0.587861 0.808962 -0
    outer loop
      vertex 78.0422 121.268 0
      vertex 77.639 121.561 6.35
      vertex 78.0422 121.268 6.35
    endloop
  endfacet
  facet normal 0.587861 0.808962 0
    outer loop
      vertex 77.639 121.561 6.35
      vertex 78.0422 121.268 0
      vertex 77.639 121.561 0
    endloop
  endfacet
  facet normal -0.482227 0.876046 0
    outer loop
      vertex 120.395 121.268 0
      vertex 119.959 121.028 6.35
      vertex 120.395 121.268 6.35
    endloop
  endfacet
  facet normal -0.482227 0.876046 0
    outer loop
      vertex 119.959 121.028 6.35
      vertex 120.395 121.268 0
      vertex 119.959 121.028 0
    endloop
  endfacet
  facet normal -0.587099 0.809515 0
    outer loop
      vertex 120.799 121.561 0
      vertex 120.395 121.268 6.35
      vertex 120.799 121.561 6.35
    endloop
  endfacet
  facet normal -0.587099 0.809515 0
    outer loop
      vertex 120.395 121.268 6.35
      vertex 120.799 121.561 0
      vertex 120.395 121.268 0
    endloop
  endfacet
  facet normal -0.248665 0.96859 0
    outer loop
      vertex 119.495 120.844 0
      vertex 119.012 120.72 6.35
      vertex 119.495 120.844 6.35
    endloop
  endfacet
  facet normal -0.248665 0.96859 0
    outer loop
      vertex 119.012 120.72 6.35
      vertex 119.495 120.844 0
      vertex 119.012 120.72 0
    endloop
  endfacet
  facet normal 0.951064 -0.308995 0
    outer loop
      vertex 76.3247 128.781 6.35
      vertex 76.4787 129.255 0
      vertex 76.4787 129.255 6.35
    endloop
  endfacet
  facet normal 0.951064 -0.308995 0
    outer loop
      vertex 76.4787 129.255 0
      vertex 76.3247 128.781 6.35
      vertex 76.3247 128.781 0
    endloop
  endfacet
  facet normal 0.904846 -0.425739 0
    outer loop
      vertex 76.4787 129.255 6.35
      vertex 76.6909 129.706 0
      vertex 76.6909 129.706 6.35
    endloop
  endfacet
  facet normal 0.904846 -0.425739 0
    outer loop
      vertex 76.6909 129.706 0
      vertex 76.4787 129.255 6.35
      vertex 76.4787 129.255 0
    endloop
  endfacet
  facet normal -0.951064 -0.308995 0
    outer loop
      vertex 122.113 128.781 0
      vertex 121.959 129.255 6.35
      vertex 121.959 129.255 0
    endloop
  endfacet
  facet normal -0.951064 -0.308995 0
    outer loop
      vertex 121.959 129.255 6.35
      vertex 122.113 128.781 0
      vertex 122.113 128.781 6.35
    endloop
  endfacet
  facet normal -0.77019 -0.637814 0
    outer loop
      vertex 121.48 130.127 0
      vertex 121.162 130.511 6.35
      vertex 121.162 130.511 0
    endloop
  endfacet
  facet normal -0.77019 -0.637814 0
    outer loop
      vertex 121.162 130.511 6.35
      vertex 121.48 130.127 0
      vertex 121.48 130.127 6.35
    endloop
  endfacet
  facet normal -0.905001 0.42541 0
    outer loop
      vertex 121.747 122.707 0
      vertex 121.959 123.158 6.35
      vertex 121.959 123.158 0
    endloop
  endfacet
  facet normal -0.905001 0.42541 0
    outer loop
      vertex 121.959 123.158 6.35
      vertex 121.747 122.707 0
      vertex 121.747 122.707 6.35
    endloop
  endfacet
  facet normal -0.844486 0.535577 0
    outer loop
      vertex 121.48 122.286 0
      vertex 121.747 122.707 6.35
      vertex 121.747 122.707 0
    endloop
  endfacet
  facet normal -0.844486 0.535577 0
    outer loop
      vertex 121.747 122.707 6.35
      vertex 121.48 122.286 0
      vertex 121.48 122.286 6.35
    endloop
  endfacet
  facet normal -0.684675 0.728848 0
    outer loop
      vertex 121.162 121.902 0
      vertex 120.799 121.561 6.35
      vertex 121.162 121.902 6.35
    endloop
  endfacet
  facet normal -0.684675 0.728848 0
    outer loop
      vertex 120.799 121.561 6.35
      vertex 121.162 121.902 0
      vertex 120.799 121.561 0
    endloop
  endfacet
  facet normal 0.998023 -0.0628533 0
    outer loop
      vertex 76.2 127.794 6.35
      vertex 76.2313 128.291 0
      vertex 76.2313 128.291 6.35
    endloop
  endfacet
  facet normal 0.998023 -0.0628533 0
    outer loop
      vertex 76.2313 128.291 0
      vertex 76.2 127.794 6.35
      vertex 76.2 127.794 0
    endloop
  endfacet
  facet normal 0.367304 -0.930101 0
    outer loop
      vertex 78.4789 131.385 0
      vertex 78.9423 131.568 6.35
      vertex 78.4789 131.385 6.35
    endloop
  endfacet
  facet normal 0.367304 -0.930101 0
    outer loop
      vertex 78.9423 131.568 6.35
      vertex 78.4789 131.385 0
      vertex 78.9423 131.568 0
    endloop
  endfacet
  facet normal 0.481634 -0.876373 0
    outer loop
      vertex 78.0422 131.145 0
      vertex 78.4789 131.385 6.35
      vertex 78.0422 131.145 6.35
    endloop
  endfacet
  facet normal 0.481634 -0.876373 0
    outer loop
      vertex 78.4789 131.385 6.35
      vertex 78.0422 131.145 0
      vertex 78.4789 131.385 0
    endloop
  endfacet
  facet normal 0.982244 0.187611 0
    outer loop
      vertex 76.3247 123.632 6.35
      vertex 76.2313 124.121 0
      vertex 76.2313 124.121 6.35
    endloop
  endfacet
  facet normal 0.982244 0.187611 0
    outer loop
      vertex 76.2313 124.121 0
      vertex 76.3247 123.632 6.35
      vertex 76.3247 123.632 0
    endloop
  endfacet
  facet normal -0.77019 0.637814 0
    outer loop
      vertex 121.162 121.902 0
      vertex 121.48 122.286 6.35
      vertex 121.48 122.286 0
    endloop
  endfacet
  facet normal -0.77019 0.637814 0
    outer loop
      vertex 121.48 122.286 6.35
      vertex 121.162 121.902 0
      vertex 121.162 121.902 6.35
    endloop
  endfacet
  facet normal 0.481634 0.876373 -0
    outer loop
      vertex 78.4789 121.028 0
      vertex 78.0422 121.268 6.35
      vertex 78.4789 121.028 6.35
    endloop
  endfacet
  facet normal 0.481634 0.876373 0
    outer loop
      vertex 78.0422 121.268 6.35
      vertex 78.4789 121.028 0
      vertex 78.0422 121.268 0
    endloop
  endfacet
  facet normal 0.844396 -0.53572 0
    outer loop
      vertex 76.6909 129.706 6.35
      vertex 76.958 130.127 0
      vertex 76.958 130.127 6.35
    endloop
  endfacet
  facet normal 0.844396 -0.53572 0
    outer loop
      vertex 76.958 130.127 0
      vertex 76.6909 129.706 6.35
      vertex 76.6909 129.706 0
    endloop
  endfacet
  facet normal 0.369038 0.929414 -0
    outer loop
      vertex 78.9423 120.844 0
      vertex 78.4789 121.028 6.35
      vertex 78.9423 120.844 6.35
    endloop
  endfacet
  facet normal 0.369038 0.929414 0
    outer loop
      vertex 78.4789 121.028 6.35
      vertex 78.9423 120.844 0
      vertex 78.4789 121.028 0
    endloop
  endfacet
  facet normal -0 0 1
    outer loop
      vertex 0 138.113 19.05
      vertex 198.438 128.587 19.05
      vertex 198.438 138.113 19.05
    endloop
  endfacet
  facet normal 0 0 1
    outer loop
      vertex 198.438 128.587 19.05
      vertex 0 138.113 19.05
      vertex 0 128.587 19.05
    endloop
  endfacet
  facet normal 0 -1 0
    outer loop
      vertex 76.2878 128.587 6.35
      vertex 0 128.587 19.05
      vertex 0 128.587 6.35
    endloop
  endfacet
  facet normal 0 -1 0
    outer loop
      vertex 0 128.587 19.05
      vertex 76.2878 128.587 6.35
      vertex 198.438 128.587 19.05
    endloop
  endfacet
  facet normal 0 -1 0
    outer loop
      vertex 122.15 128.587 6.35
      vertex 198.438 128.587 19.05
      vertex 76.2878 128.587 6.35
    endloop
  endfacet
  facet normal 0 -1 -0
    outer loop
      vertex 198.438 128.587 19.05
      vertex 122.15 128.587 6.35
      vertex 198.438 128.587 6.35
    endloop
  endfacet
endsolid OpenSCAD_Model
