solid OpenSCAD_Model
  facet normal 1 -0 0
    outer loop
      vertex 76.2 0 6.35
      vertex 76.2 76.2 0
      vertex 76.2 76.2 6.35
    endloop
  endfacet
  facet normal 1 0 0
    outer loop
      vertex 76.2 76.2 0
      vertex 76.2 0 6.35
      vertex 76.2 0 0
    endloop
  endfacet
  facet normal 0 0 1
    outer loop
      vertex 76.2 76.2 6.35
      vertex 43.1 38.1 6.35
      vertex 76.2 0 6.35
    endloop
  endfacet
  facet normal 0 0 1
    outer loop
      vertex 76.2 76.2 6.35
      vertex 43.0606 38.7267 6.35
      vertex 43.1 38.1 6.35
    endloop
  endfacet
  facet normal 0 0 1
    outer loop
      vertex 76.2 76.2 6.35
      vertex 42.9429 39.3434 6.35
      vertex 43.0606 38.7267 6.35
    endloop
  endfacet
  facet normal 0 0 1
    outer loop
      vertex 76.2 76.2 6.35
      vertex 42.7489 39.9406 6.35
      vertex 42.9429 39.3434 6.35
    endloop
  endfacet
  facet normal 0 0 1
    outer loop
      vertex 76.2 76.2 6.35
      vertex 42.4815 40.5088 6.35
      vertex 42.7489 39.9406 6.35
    endloop
  endfacet
  facet normal 0 0 1
    outer loop
      vertex 76.2 76.2 6.35
      vertex 42.1451 41.0389 6.35
      vertex 42.4815 40.5088 6.35
    endloop
  endfacet
  facet normal 0 0 1
    outer loop
      vertex 76.2 76.2 6.35
      vertex 41.7448 41.5227 6.35
      vertex 42.1451 41.0389 6.35
    endloop
  endfacet
  facet normal 0 0 1
    outer loop
      vertex 76.2 76.2 6.35
      vertex 41.2871 41.9526 6.35
      vertex 41.7448 41.5227 6.35
    endloop
  endfacet
  facet normal 0 0 1
    outer loop
      vertex 76.2 76.2 6.35
      vertex 40.7791 42.3216 6.35
      vertex 41.2871 41.9526 6.35
    endloop
  endfacet
  facet normal 0 0 1
    outer loop
      vertex 76.2 76.2 6.35
      vertex 40.2289 42.6241 6.35
      vertex 40.7791 42.3216 6.35
    endloop
  endfacet
  facet normal 0 0 1
    outer loop
      vertex 76.2 76.2 6.35
      vertex 39.6451 42.8553 6.35
      vertex 40.2289 42.6241 6.35
    endloop
  endfacet
  facet normal 0 0 1
    outer loop
      vertex 76.2 76.2 6.35
      vertex 39.0369 43.0114 6.35
      vertex 39.6451 42.8553 6.35
    endloop
  endfacet
  facet normal 0 0 1
    outer loop
      vertex 76.2 76.2 6.35
      vertex 38.414 43.0901 6.35
      vertex 39.0369 43.0114 6.35
    endloop
  endfacet
  facet normal 0 0 1
    outer loop
      vertex 76.2 76.2 6.35
      vertex 37.786 43.0901 6.35
      vertex 38.414 43.0901 6.35
    endloop
  endfacet
  facet normal -0 0 1
    outer loop
      vertex 0 76.2 6.35
      vertex 37.786 43.0901 6.35
      vertex 76.2 76.2 6.35
    endloop
  endfacet
  facet normal 0 0 1
    outer loop
      vertex 37.786 43.0901 6.35
      vertex 0 76.2 6.35
      vertex 37.1631 43.0114 6.35
    endloop
  endfacet
  facet normal 0 0 1
    outer loop
      vertex 37.1631 43.0114 6.35
      vertex 0 76.2 6.35
      vertex 36.5549 42.8553 6.35
    endloop
  endfacet
  facet normal 0 0 1
    outer loop
      vertex 36.5549 42.8553 6.35
      vertex 0 76.2 6.35
      vertex 35.9711 42.6241 6.35
    endloop
  endfacet
  facet normal 0 0 1
    outer loop
      vertex 35.9711 42.6241 6.35
      vertex 0 76.2 6.35
      vertex 35.4209 42.3216 6.35
    endloop
  endfacet
  facet normal 0 0 1
    outer loop
      vertex 33.1394 38.7267 6.35
      vertex 0 76.2 6.35
      vertex 33.1 38.1 6.35
    endloop
  endfacet
  facet normal 0 0 1
    outer loop
      vertex 33.2571 39.3434 6.35
      vertex 0 76.2 6.35
      vertex 33.1394 38.7267 6.35
    endloop
  endfacet
  facet normal 0 0 1
    outer loop
      vertex 33.4511 39.9406 6.35
      vertex 0 76.2 6.35
      vertex 33.2571 39.3434 6.35
    endloop
  endfacet
  facet normal 0 0 1
    outer loop
      vertex 33.7185 40.5088 6.35
      vertex 0 76.2 6.35
      vertex 33.4511 39.9406 6.35
    endloop
  endfacet
  facet normal 0 0 1
    outer loop
      vertex 34.0549 41.0389 6.35
      vertex 0 76.2 6.35
      vertex 33.7185 40.5088 6.35
    endloop
  endfacet
  facet normal 0 0 1
    outer loop
      vertex 34.4552 41.5227 6.35
      vertex 0 76.2 6.35
      vertex 34.0549 41.0389 6.35
    endloop
  endfacet
  facet normal 0 0 1
    outer loop
      vertex 34.9129 41.9526 6.35
      vertex 0 76.2 6.35
      vertex 34.4552 41.5227 6.35
    endloop
  endfacet
  facet normal 0 0 1
    outer loop
      vertex 35.4209 42.3216 6.35
      vertex 0 76.2 6.35
      vertex 34.9129 41.9526 6.35
    endloop
  endfacet
  facet normal -0 0 1
    outer loop
      vertex 43.0606 37.4733 6.35
      vertex 76.2 0 6.35
      vertex 43.1 38.1 6.35
    endloop
  endfacet
  facet normal -0 0 1
    outer loop
      vertex 42.9429 36.8566 6.35
      vertex 76.2 0 6.35
      vertex 43.0606 37.4733 6.35
    endloop
  endfacet
  facet normal -0 0 1
    outer loop
      vertex 42.7489 36.2594 6.35
      vertex 76.2 0 6.35
      vertex 42.9429 36.8566 6.35
    endloop
  endfacet
  facet normal -0 0 1
    outer loop
      vertex 42.4815 35.6912 6.35
      vertex 76.2 0 6.35
      vertex 42.7489 36.2594 6.35
    endloop
  endfacet
  facet normal -0 0 1
    outer loop
      vertex 42.1451 35.1611 6.35
      vertex 76.2 0 6.35
      vertex 42.4815 35.6912 6.35
    endloop
  endfacet
  facet normal -0 0 1
    outer loop
      vertex 41.7448 34.6773 6.35
      vertex 76.2 0 6.35
      vertex 42.1451 35.1611 6.35
    endloop
  endfacet
  facet normal -0 0 1
    outer loop
      vertex 41.2871 34.2474 6.35
      vertex 76.2 0 6.35
      vertex 41.7448 34.6773 6.35
    endloop
  endfacet
  facet normal -0 0 1
    outer loop
      vertex 40.7791 33.8784 6.35
      vertex 76.2 0 6.35
      vertex 41.2871 34.2474 6.35
    endloop
  endfacet
  facet normal -0 0 1
    outer loop
      vertex 40.2289 33.5759 6.35
      vertex 76.2 0 6.35
      vertex 40.7791 33.8784 6.35
    endloop
  endfacet
  facet normal -0 0 1
    outer loop
      vertex 39.6451 33.3447 6.35
      vertex 76.2 0 6.35
      vertex 40.2289 33.5759 6.35
    endloop
  endfacet
  facet normal -0 0 1
    outer loop
      vertex 39.0369 33.1886 6.35
      vertex 76.2 0 6.35
      vertex 39.6451 33.3447 6.35
    endloop
  endfacet
  facet normal -0 0 1
    outer loop
      vertex 38.414 33.1099 6.35
      vertex 76.2 0 6.35
      vertex 39.0369 33.1886 6.35
    endloop
  endfacet
  facet normal -0 0 1
    outer loop
      vertex 37.786 33.1099 6.35
      vertex 76.2 0 6.35
      vertex 38.414 33.1099 6.35
    endloop
  endfacet
  facet normal 0 0 1
    outer loop
      vertex 0 0 6.35
      vertex 37.786 33.1099 6.35
      vertex 37.1631 33.1886 6.35
    endloop
  endfacet
  facet normal 0 0 1
    outer loop
      vertex 0 0 6.35
      vertex 37.1631 33.1886 6.35
      vertex 36.5549 33.3447 6.35
    endloop
  endfacet
  facet normal 0 0 1
    outer loop
      vertex 0 0 6.35
      vertex 36.5549 33.3447 6.35
      vertex 35.9711 33.5759 6.35
    endloop
  endfacet
  facet normal 0 0 1
    outer loop
      vertex 0 0 6.35
      vertex 35.9711 33.5759 6.35
      vertex 35.4209 33.8784 6.35
    endloop
  endfacet
  facet normal 0 0 1
    outer loop
      vertex 0 0 6.35
      vertex 35.4209 33.8784 6.35
      vertex 34.9129 34.2474 6.35
    endloop
  endfacet
  facet normal 0 0 1
    outer loop
      vertex 0 0 6.35
      vertex 33.1 38.1 6.35
      vertex 0 76.2 6.35
    endloop
  endfacet
  facet normal 0 0 1
    outer loop
      vertex 33.1 38.1 6.35
      vertex 0 0 6.35
      vertex 33.1394 37.4733 6.35
    endloop
  endfacet
  facet normal 0 0 1
    outer loop
      vertex 33.1394 37.4733 6.35
      vertex 0 0 6.35
      vertex 33.2571 36.8566 6.35
    endloop
  endfacet
  facet normal 0 0 1
    outer loop
      vertex 33.2571 36.8566 6.35
      vertex 0 0 6.35
      vertex 33.4511 36.2594 6.35
    endloop
  endfacet
  facet normal 0 0 1
    outer loop
      vertex 33.4511 36.2594 6.35
      vertex 0 0 6.35
      vertex 33.7185 35.6912 6.35
    endloop
  endfacet
  facet normal 0 0 1
    outer loop
      vertex 33.7185 35.6912 6.35
      vertex 0 0 6.35
      vertex 34.0549 35.1611 6.35
    endloop
  endfacet
  facet normal 0 0 1
    outer loop
      vertex 37.786 33.1099 6.35
      vertex 0 0 6.35
      vertex 76.2 0 6.35
    endloop
  endfacet
  facet normal 0 0 1
    outer loop
      vertex 34.4552 34.6773 6.35
      vertex 0 0 6.35
      vertex 34.9129 34.2474 6.35
    endloop
  endfacet
  facet normal 0 0 1
    outer loop
      vertex 34.0549 35.1611 6.35
      vertex 0 0 6.35
      vertex 34.4552 34.6773 6.35
    endloop
  endfacet
  facet normal 0 0 -1
    outer loop
      vertex 76.2 0 0
      vertex 43.1 38.1 0
      vertex 76.2 76.2 0
    endloop
  endfacet
  facet normal 0 0 -1
    outer loop
      vertex 76.2 0 0
      vertex 43.0606 37.4733 0
      vertex 43.1 38.1 0
    endloop
  endfacet
  facet normal 0 0 -1
    outer loop
      vertex 76.2 0 0
      vertex 42.9429 36.8566 0
      vertex 43.0606 37.4733 0
    endloop
  endfacet
  facet normal 0 0 -1
    outer loop
      vertex 76.2 0 0
      vertex 42.7489 36.2594 0
      vertex 42.9429 36.8566 0
    endloop
  endfacet
  facet normal 0 0 -1
    outer loop
      vertex 76.2 0 0
      vertex 42.4815 35.6912 0
      vertex 42.7489 36.2594 0
    endloop
  endfacet
  facet normal 0 0 -1
    outer loop
      vertex 76.2 0 0
      vertex 42.1451 35.1611 0
      vertex 42.4815 35.6912 0
    endloop
  endfacet
  facet normal 0 0 -1
    outer loop
      vertex 76.2 0 0
      vertex 41.7448 34.6773 0
      vertex 42.1451 35.1611 0
    endloop
  endfacet
  facet normal 0 0 -1
    outer loop
      vertex 76.2 0 0
      vertex 41.2871 34.2474 0
      vertex 41.7448 34.6773 0
    endloop
  endfacet
  facet normal 0 0 -1
    outer loop
      vertex 76.2 0 0
      vertex 40.7791 33.8784 0
      vertex 41.2871 34.2474 0
    endloop
  endfacet
  facet normal 0 0 -1
    outer loop
      vertex 76.2 0 0
      vertex 40.2289 33.5759 0
      vertex 40.7791 33.8784 0
    endloop
  endfacet
  facet normal 0 0 -1
    outer loop
      vertex 76.2 0 0
      vertex 39.6451 33.3447 0
      vertex 40.2289 33.5759 0
    endloop
  endfacet
  facet normal 0 0 -1
    outer loop
      vertex 76.2 0 0
      vertex 39.0369 33.1886 0
      vertex 39.6451 33.3447 0
    endloop
  endfacet
  facet normal 0 0 -1
    outer loop
      vertex 76.2 0 0
      vertex 38.414 33.1099 0
      vertex 39.0369 33.1886 0
    endloop
  endfacet
  facet normal 0 0 -1
    outer loop
      vertex 76.2 0 0
      vertex 37.786 33.1099 0
      vertex 38.414 33.1099 0
    endloop
  endfacet
  facet normal 0 0 -1
    outer loop
      vertex 0 0 0
      vertex 37.786 33.1099 0
      vertex 76.2 0 0
    endloop
  endfacet
  facet normal -0 0 -1
    outer loop
      vertex 37.786 33.1099 0
      vertex 0 0 0
      vertex 37.1631 33.1886 0
    endloop
  endfacet
  facet normal -0 0 -1
    outer loop
      vertex 37.1631 33.1886 0
      vertex 0 0 0
      vertex 36.5549 33.3447 0
    endloop
  endfacet
  facet normal -0 0 -1
    outer loop
      vertex 36.5549 33.3447 0
      vertex 0 0 0
      vertex 35.9711 33.5759 0
    endloop
  endfacet
  facet normal -0 0 -1
    outer loop
      vertex 35.9711 33.5759 0
      vertex 0 0 0
      vertex 35.4209 33.8784 0
    endloop
  endfacet
  facet normal -0 0 -1
    outer loop
      vertex 33.1394 37.4733 0
      vertex 0 0 0
      vertex 33.1 38.1 0
    endloop
  endfacet
  facet normal -0 0 -1
    outer loop
      vertex 33.2571 36.8566 0
      vertex 0 0 0
      vertex 33.1394 37.4733 0
    endloop
  endfacet
  facet normal -0 0 -1
    outer loop
      vertex 33.4511 36.2594 0
      vertex 0 0 0
      vertex 33.2571 36.8566 0
    endloop
  endfacet
  facet normal -0 0 -1
    outer loop
      vertex 33.7185 35.6912 0
      vertex 0 0 0
      vertex 33.4511 36.2594 0
    endloop
  endfacet
  facet normal -0 0 -1
    outer loop
      vertex 34.0549 35.1611 0
      vertex 0 0 0
      vertex 33.7185 35.6912 0
    endloop
  endfacet
  facet normal -0 0 -1
    outer loop
      vertex 34.4552 34.6773 0
      vertex 0 0 0
      vertex 34.0549 35.1611 0
    endloop
  endfacet
  facet normal -0 0 -1
    outer loop
      vertex 34.9129 34.2474 0
      vertex 0 0 0
      vertex 34.4552 34.6773 0
    endloop
  endfacet
  facet normal -0 0 -1
    outer loop
      vertex 35.4209 33.8784 0
      vertex 0 0 0
      vertex 34.9129 34.2474 0
    endloop
  endfacet
  facet normal 0 0 -1
    outer loop
      vertex 43.0606 38.7267 0
      vertex 76.2 76.2 0
      vertex 43.1 38.1 0
    endloop
  endfacet
  facet normal 0 0 -1
    outer loop
      vertex 42.9429 39.3434 0
      vertex 76.2 76.2 0
      vertex 43.0606 38.7267 0
    endloop
  endfacet
  facet normal 0 0 -1
    outer loop
      vertex 42.7489 39.9406 0
      vertex 76.2 76.2 0
      vertex 42.9429 39.3434 0
    endloop
  endfacet
  facet normal 0 0 -1
    outer loop
      vertex 42.4815 40.5088 0
      vertex 76.2 76.2 0
      vertex 42.7489 39.9406 0
    endloop
  endfacet
  facet normal 0 0 -1
    outer loop
      vertex 42.1451 41.0389 0
      vertex 76.2 76.2 0
      vertex 42.4815 40.5088 0
    endloop
  endfacet
  facet normal 0 0 -1
    outer loop
      vertex 41.7448 41.5227 0
      vertex 76.2 76.2 0
      vertex 42.1451 41.0389 0
    endloop
  endfacet
  facet normal 0 0 -1
    outer loop
      vertex 41.2871 41.9526 0
      vertex 76.2 76.2 0
      vertex 41.7448 41.5227 0
    endloop
  endfacet
  facet normal 0 0 -1
    outer loop
      vertex 40.7791 42.3216 0
      vertex 76.2 76.2 0
      vertex 41.2871 41.9526 0
    endloop
  endfacet
  facet normal 0 0 -1
    outer loop
      vertex 40.2289 42.6241 0
      vertex 76.2 76.2 0
      vertex 40.7791 42.3216 0
    endloop
  endfacet
  facet normal 0 0 -1
    outer loop
      vertex 39.6451 42.8553 0
      vertex 76.2 76.2 0
      vertex 40.2289 42.6241 0
    endloop
  endfacet
  facet normal 0 0 -1
    outer loop
      vertex 39.0369 43.0114 0
      vertex 76.2 76.2 0
      vertex 39.6451 42.8553 0
    endloop
  endfacet
  facet normal 0 0 -1
    outer loop
      vertex 38.414 43.0901 0
      vertex 76.2 76.2 0
      vertex 39.0369 43.0114 0
    endloop
  endfacet
  facet normal 0 0 -1
    outer loop
      vertex 37.786 43.0901 0
      vertex 76.2 76.2 0
      vertex 38.414 43.0901 0
    endloop
  endfacet
  facet normal 0 0 -1
    outer loop
      vertex 0 76.2 0
      vertex 37.786 43.0901 0
      vertex 37.1631 43.0114 0
    endloop
  endfacet
  facet normal 0 0 -1
    outer loop
      vertex 0 76.2 0
      vertex 37.1631 43.0114 0
      vertex 36.5549 42.8553 0
    endloop
  endfacet
  facet normal 0 0 -1
    outer loop
      vertex 0 76.2 0
      vertex 36.5549 42.8553 0
      vertex 35.9711 42.6241 0
    endloop
  endfacet
  facet normal 0 0 -1
    outer loop
      vertex 0 76.2 0
      vertex 35.9711 42.6241 0
      vertex 35.4209 42.3216 0
    endloop
  endfacet
  facet normal 0 0 -1
    outer loop
      vertex 0 76.2 0
      vertex 35.4209 42.3216 0
      vertex 34.9129 41.9526 0
    endloop
  endfacet
  facet normal 0 0 -1
    outer loop
      vertex 0 76.2 0
      vertex 33.1 38.1 0
      vertex 0 0 0
    endloop
  endfacet
  facet normal 0 0 -1
    outer loop
      vertex 33.1 38.1 0
      vertex 0 76.2 0
      vertex 33.1394 38.7267 0
    endloop
  endfacet
  facet normal 0 0 -1
    outer loop
      vertex 33.1394 38.7267 0
      vertex 0 76.2 0
      vertex 33.2571 39.3434 0
    endloop
  endfacet
  facet normal 0 0 -1
    outer loop
      vertex 33.2571 39.3434 0
      vertex 0 76.2 0
      vertex 33.4511 39.9406 0
    endloop
  endfacet
  facet normal 0 0 -1
    outer loop
      vertex 33.4511 39.9406 0
      vertex 0 76.2 0
      vertex 33.7185 40.5088 0
    endloop
  endfacet
  facet normal 0 0 -1
    outer loop
      vertex 33.7185 40.5088 0
      vertex 0 76.2 0
      vertex 34.0549 41.0389 0
    endloop
  endfacet
  facet normal 0 0 -1
    outer loop
      vertex 37.786 43.0901 0
      vertex 0 76.2 0
      vertex 76.2 76.2 0
    endloop
  endfacet
  facet normal 0 0 -1
    outer loop
      vertex 34.4552 41.5227 0
      vertex 0 76.2 0
      vertex 34.9129 41.9526 0
    endloop
  endfacet
  facet normal 0 0 -1
    outer loop
      vertex 34.0549 41.0389 0
      vertex 0 76.2 0
      vertex 34.4552 41.5227 0
    endloop
  endfacet
  facet normal -1 0 0
    outer loop
      vertex 0 0 0
      vertex 0 76.2 6.35
      vertex 0 76.2 0
    endloop
  endfacet
  facet normal -1 -0 0
    outer loop
      vertex 0 76.2 6.35
      vertex 0 0 0
      vertex 0 0 6.35
    endloop
  endfacet
  facet normal 0 1 -0
    outer loop
      vertex 76.2 76.2 0
      vertex 0 76.2 6.35
      vertex 76.2 76.2 6.35
    endloop
  endfacet
  facet normal 0 1 0
    outer loop
      vertex 0 76.2 6.35
      vertex 76.2 76.2 0
      vertex 0 76.2 0
    endloop
  endfacet
  facet normal 0 -1 0
    outer loop
      vertex 0 0 0
      vertex 76.2 0 6.35
      vertex 0 0 6.35
    endloop
  endfacet
  facet normal 0 -1 -0
    outer loop
      vertex 76.2 0 6.35
      vertex 0 0 0
      vertex 76.2 0 0
    endloop
  endfacet
  facet normal -0.368203 0.929745 0
    outer loop
      vertex 40.2289 33.5759 0
      vertex 39.6451 33.3447 6.35
      vertex 40.2289 33.5759 6.35
    endloop
  endfacet
  facet normal -0.368203 0.929745 0
    outer loop
      vertex 39.6451 33.3447 6.35
      vertex 40.2289 33.5759 0
      vertex 39.6451 33.3447 0
    endloop
  endfacet
  facet normal -0.98227 -0.187471 0
    outer loop
      vertex 43.0606 38.7267 0
      vertex 42.9429 39.3434 6.35
      vertex 42.9429 39.3434 0
    endloop
  endfacet
  facet normal -0.98227 -0.187471 0
    outer loop
      vertex 42.9429 39.3434 6.35
      vertex 43.0606 38.7267 0
      vertex 43.0606 38.7267 6.35
    endloop
  endfacet
  facet normal -0.99803 -0.0627451 0
    outer loop
      vertex 43.1 38.1 0
      vertex 43.0606 38.7267 6.35
      vertex 43.0606 38.7267 0
    endloop
  endfacet
  facet normal -0.99803 -0.0627451 0
    outer loop
      vertex 43.0606 38.7267 6.35
      vertex 43.1 38.1 0
      vertex 43.1 38.1 6.35
    endloop
  endfacet
  facet normal -0.951076 -0.308956 0
    outer loop
      vertex 42.9429 39.3434 0
      vertex 42.7489 39.9406 6.35
      vertex 42.7489 39.9406 0
    endloop
  endfacet
  facet normal -0.951076 -0.308956 0
    outer loop
      vertex 42.7489 39.9406 6.35
      vertex 42.9429 39.3434 0
      vertex 42.9429 39.3434 6.35
    endloop
  endfacet
  facet normal -0.99803 0.0627451 0
    outer loop
      vertex 43.0606 37.4733 0
      vertex 43.1 38.1 6.35
      vertex 43.1 38.1 0
    endloop
  endfacet
  facet normal -0.99803 0.0627451 0
    outer loop
      vertex 43.1 38.1 6.35
      vertex 43.0606 37.4733 0
      vertex 43.0606 37.4733 6.35
    endloop
  endfacet
  facet normal -0.904811 0.425812 0
    outer loop
      vertex 42.4815 35.6912 0
      vertex 42.7489 36.2594 6.35
      vertex 42.7489 36.2594 0
    endloop
  endfacet
  facet normal -0.904811 0.425812 0
    outer loop
      vertex 42.7489 36.2594 6.35
      vertex 42.4815 35.6912 0
      vertex 42.4815 35.6912 6.35
    endloop
  endfacet
  facet normal -0.844336 -0.535814 0
    outer loop
      vertex 42.4815 40.5088 0
      vertex 42.1451 41.0389 6.35
      vertex 42.1451 41.0389 0
    endloop
  endfacet
  facet normal -0.844336 -0.535814 0
    outer loop
      vertex 42.1451 41.0389 6.35
      vertex 42.4815 40.5088 0
      vertex 42.4815 40.5088 6.35
    endloop
  endfacet
  facet normal 0.684624 -0.728896 0
    outer loop
      vertex 34.4552 41.5227 0
      vertex 34.9129 41.9526 6.35
      vertex 34.4552 41.5227 6.35
    endloop
  endfacet
  facet normal 0.684624 -0.728896 0
    outer loop
      vertex 34.9129 41.9526 6.35
      vertex 34.4552 41.5227 0
      vertex 34.9129 41.9526 0
    endloop
  endfacet
  facet normal -0.951076 0.308956 0
    outer loop
      vertex 42.7489 36.2594 0
      vertex 42.9429 36.8566 6.35
      vertex 42.9429 36.8566 0
    endloop
  endfacet
  facet normal -0.951076 0.308956 0
    outer loop
      vertex 42.9429 36.8566 6.35
      vertex 42.7489 36.2594 0
      vertex 42.7489 36.2594 6.35
    endloop
  endfacet
  facet normal -0.368203 -0.929745 0
    outer loop
      vertex 39.6451 42.8553 0
      vertex 40.2289 42.6241 6.35
      vertex 39.6451 42.8553 6.35
    endloop
  endfacet
  facet normal -0.368203 -0.929745 -0
    outer loop
      vertex 40.2289 42.6241 6.35
      vertex 39.6451 42.8553 0
      vertex 40.2289 42.6241 0
    endloop
  endfacet
  facet normal 0.481784 0.87629 -0
    outer loop
      vertex 35.9711 33.5759 0
      vertex 35.4209 33.8784 6.35
      vertex 35.9711 33.5759 6.35
    endloop
  endfacet
  facet normal 0.481784 0.87629 0
    outer loop
      vertex 35.4209 33.8784 6.35
      vertex 35.9711 33.5759 0
      vertex 35.4209 33.8784 0
    endloop
  endfacet
  facet normal -0.904811 -0.425812 0
    outer loop
      vertex 42.7489 39.9406 0
      vertex 42.4815 40.5088 6.35
      vertex 42.4815 40.5088 0
    endloop
  endfacet
  facet normal -0.904811 -0.425812 0
    outer loop
      vertex 42.4815 40.5088 6.35
      vertex 42.7489 39.9406 0
      vertex 42.7489 39.9406 6.35
    endloop
  endfacet
  facet normal -0.684624 -0.728896 0
    outer loop
      vertex 41.2871 41.9526 0
      vertex 41.7448 41.5227 6.35
      vertex 41.2871 41.9526 6.35
    endloop
  endfacet
  facet normal -0.684624 -0.728896 -0
    outer loop
      vertex 41.7448 41.5227 6.35
      vertex 41.2871 41.9526 0
      vertex 41.7448 41.5227 0
    endloop
  endfacet
  facet normal 0.844336 -0.535814 0
    outer loop
      vertex 33.7185 40.5088 6.35
      vertex 34.0549 41.0389 0
      vertex 34.0549 41.0389 6.35
    endloop
  endfacet
  facet normal 0.844336 -0.535814 0
    outer loop
      vertex 34.0549 41.0389 0
      vertex 33.7185 40.5088 6.35
      vertex 33.7185 40.5088 0
    endloop
  endfacet
  facet normal 0.99803 -0.0627451 0
    outer loop
      vertex 33.1 38.1 6.35
      vertex 33.1394 38.7267 0
      vertex 33.1394 38.7267 6.35
    endloop
  endfacet
  facet normal 0.99803 -0.0627451 0
    outer loop
      vertex 33.1394 38.7267 0
      vertex 33.1 38.1 6.35
      vertex 33.1 38.1 0
    endloop
  endfacet
  facet normal 0.248601 -0.968606 0
    outer loop
      vertex 36.5549 42.8553 0
      vertex 37.1631 43.0114 6.35
      vertex 36.5549 42.8553 6.35
    endloop
  endfacet
  facet normal 0.248601 -0.968606 0
    outer loop
      vertex 37.1631 43.0114 6.35
      vertex 36.5549 42.8553 0
      vertex 37.1631 43.0114 0
    endloop
  endfacet
  facet normal -0.125348 0.992113 0
    outer loop
      vertex 39.0369 33.1886 0
      vertex 38.414 33.1099 6.35
      vertex 39.0369 33.1886 6.35
    endloop
  endfacet
  facet normal -0.125348 0.992113 0
    outer loop
      vertex 38.414 33.1099 6.35
      vertex 39.0369 33.1886 0
      vertex 38.414 33.1099 0
    endloop
  endfacet
  facet normal -0.770462 0.637486 0
    outer loop
      vertex 41.7448 34.6773 0
      vertex 42.1451 35.1611 6.35
      vertex 42.1451 35.1611 0
    endloop
  endfacet
  facet normal -0.770462 0.637486 0
    outer loop
      vertex 42.1451 35.1611 6.35
      vertex 41.7448 34.6773 0
      vertex 41.7448 34.6773 6.35
    endloop
  endfacet
  facet normal -0.844336 0.535814 0
    outer loop
      vertex 42.1451 35.1611 0
      vertex 42.4815 35.6912 6.35
      vertex 42.4815 35.6912 0
    endloop
  endfacet
  facet normal -0.844336 0.535814 0
    outer loop
      vertex 42.4815 35.6912 6.35
      vertex 42.1451 35.1611 0
      vertex 42.1451 35.1611 6.35
    endloop
  endfacet
  facet normal 0.770462 0.637486 0
    outer loop
      vertex 34.4552 34.6773 6.35
      vertex 34.0549 35.1611 0
      vertex 34.0549 35.1611 6.35
    endloop
  endfacet
  facet normal 0.770462 0.637486 0
    outer loop
      vertex 34.0549 35.1611 0
      vertex 34.4552 34.6773 6.35
      vertex 34.4552 34.6773 0
    endloop
  endfacet
  facet normal -0.248601 0.968606 0
    outer loop
      vertex 39.6451 33.3447 0
      vertex 39.0369 33.1886 6.35
      vertex 39.6451 33.3447 6.35
    endloop
  endfacet
  facet normal -0.248601 0.968606 0
    outer loop
      vertex 39.0369 33.1886 6.35
      vertex 39.6451 33.3447 0
      vertex 39.0369 33.1886 0
    endloop
  endfacet
  facet normal 0.368203 0.929745 -0
    outer loop
      vertex 36.5549 33.3447 0
      vertex 35.9711 33.5759 6.35
      vertex 36.5549 33.3447 6.35
    endloop
  endfacet
  facet normal 0.368203 0.929745 0
    outer loop
      vertex 35.9711 33.5759 6.35
      vertex 36.5549 33.3447 0
      vertex 35.9711 33.5759 0
    endloop
  endfacet
  facet normal -0.684624 0.728896 0
    outer loop
      vertex 41.7448 34.6773 0
      vertex 41.2871 34.2474 6.35
      vertex 41.7448 34.6773 6.35
    endloop
  endfacet
  facet normal -0.684624 0.728896 0
    outer loop
      vertex 41.2871 34.2474 6.35
      vertex 41.7448 34.6773 0
      vertex 41.2871 34.2474 0
    endloop
  endfacet
  facet normal 0 1 -0
    outer loop
      vertex 38.414 33.1099 0
      vertex 37.786 33.1099 6.35
      vertex 38.414 33.1099 6.35
    endloop
  endfacet
  facet normal 0 1 0
    outer loop
      vertex 37.786 33.1099 6.35
      vertex 38.414 33.1099 0
      vertex 37.786 33.1099 0
    endloop
  endfacet
  facet normal -0.587698 0.80908 0
    outer loop
      vertex 41.2871 34.2474 0
      vertex 40.7791 33.8784 6.35
      vertex 41.2871 34.2474 6.35
    endloop
  endfacet
  facet normal -0.587698 0.80908 0
    outer loop
      vertex 40.7791 33.8784 6.35
      vertex 41.2871 34.2474 0
      vertex 40.7791 33.8784 0
    endloop
  endfacet
  facet normal -0.125348 -0.992113 0
    outer loop
      vertex 38.414 43.0901 0
      vertex 39.0369 43.0114 6.35
      vertex 38.414 43.0901 6.35
    endloop
  endfacet
  facet normal -0.125348 -0.992113 -0
    outer loop
      vertex 39.0369 43.0114 6.35
      vertex 38.414 43.0901 0
      vertex 39.0369 43.0114 0
    endloop
  endfacet
  facet normal 0.684624 0.728896 -0
    outer loop
      vertex 34.9129 34.2474 0
      vertex 34.4552 34.6773 6.35
      vertex 34.9129 34.2474 6.35
    endloop
  endfacet
  facet normal 0.684624 0.728896 0
    outer loop
      vertex 34.4552 34.6773 6.35
      vertex 34.9129 34.2474 0
      vertex 34.4552 34.6773 0
    endloop
  endfacet
  facet normal 0 -1 0
    outer loop
      vertex 37.786 43.0901 0
      vertex 38.414 43.0901 6.35
      vertex 37.786 43.0901 6.35
    endloop
  endfacet
  facet normal 0 -1 -0
    outer loop
      vertex 38.414 43.0901 6.35
      vertex 37.786 43.0901 0
      vertex 38.414 43.0901 0
    endloop
  endfacet
  facet normal 0.844336 0.535814 0
    outer loop
      vertex 34.0549 35.1611 6.35
      vertex 33.7185 35.6912 0
      vertex 33.7185 35.6912 6.35
    endloop
  endfacet
  facet normal 0.844336 0.535814 0
    outer loop
      vertex 33.7185 35.6912 0
      vertex 34.0549 35.1611 6.35
      vertex 34.0549 35.1611 0
    endloop
  endfacet
  facet normal -0.770462 -0.637486 0
    outer loop
      vertex 42.1451 41.0389 0
      vertex 41.7448 41.5227 6.35
      vertex 41.7448 41.5227 0
    endloop
  endfacet
  facet normal -0.770462 -0.637486 0
    outer loop
      vertex 41.7448 41.5227 6.35
      vertex 42.1451 41.0389 0
      vertex 42.1451 41.0389 6.35
    endloop
  endfacet
  facet normal 0.125348 0.992113 -0
    outer loop
      vertex 37.786 33.1099 0
      vertex 37.1631 33.1886 6.35
      vertex 37.786 33.1099 6.35
    endloop
  endfacet
  facet normal 0.125348 0.992113 0
    outer loop
      vertex 37.1631 33.1886 6.35
      vertex 37.786 33.1099 0
      vertex 37.1631 33.1886 0
    endloop
  endfacet
  facet normal 0.125348 -0.992113 0
    outer loop
      vertex 37.1631 43.0114 0
      vertex 37.786 43.0901 6.35
      vertex 37.1631 43.0114 6.35
    endloop
  endfacet
  facet normal 0.125348 -0.992113 0
    outer loop
      vertex 37.786 43.0901 6.35
      vertex 37.1631 43.0114 0
      vertex 37.786 43.0901 0
    endloop
  endfacet
  facet normal 0.904811 0.425812 0
    outer loop
      vertex 33.7185 35.6912 6.35
      vertex 33.4511 36.2594 0
      vertex 33.4511 36.2594 6.35
    endloop
  endfacet
  facet normal 0.904811 0.425812 0
    outer loop
      vertex 33.4511 36.2594 0
      vertex 33.7185 35.6912 6.35
      vertex 33.7185 35.6912 0
    endloop
  endfacet
  facet normal -0.248601 -0.968606 0
    outer loop
      vertex 39.0369 43.0114 0
      vertex 39.6451 42.8553 6.35
      vertex 39.0369 43.0114 6.35
    endloop
  endfacet
  facet normal -0.248601 -0.968606 -0
    outer loop
      vertex 39.6451 42.8553 6.35
      vertex 39.0369 43.0114 0
      vertex 39.6451 42.8553 0
    endloop
  endfacet
  facet normal 0.951076 0.308956 0
    outer loop
      vertex 33.4511 36.2594 6.35
      vertex 33.2571 36.8566 0
      vertex 33.2571 36.8566 6.35
    endloop
  endfacet
  facet normal 0.951076 0.308956 0
    outer loop
      vertex 33.2571 36.8566 0
      vertex 33.4511 36.2594 6.35
      vertex 33.4511 36.2594 0
    endloop
  endfacet
  facet normal 0.951076 -0.308956 0
    outer loop
      vertex 33.2571 39.3434 6.35
      vertex 33.4511 39.9406 0
      vertex 33.4511 39.9406 6.35
    endloop
  endfacet
  facet normal 0.951076 -0.308956 0
    outer loop
      vertex 33.4511 39.9406 0
      vertex 33.2571 39.3434 6.35
      vertex 33.2571 39.3434 0
    endloop
  endfacet
  facet normal -0.481784 -0.87629 0
    outer loop
      vertex 40.2289 42.6241 0
      vertex 40.7791 42.3216 6.35
      vertex 40.2289 42.6241 6.35
    endloop
  endfacet
  facet normal -0.481784 -0.87629 -0
    outer loop
      vertex 40.7791 42.3216 6.35
      vertex 40.2289 42.6241 0
      vertex 40.7791 42.3216 0
    endloop
  endfacet
  facet normal 0.368203 -0.929745 0
    outer loop
      vertex 35.9711 42.6241 0
      vertex 36.5549 42.8553 6.35
      vertex 35.9711 42.6241 6.35
    endloop
  endfacet
  facet normal 0.368203 -0.929745 0
    outer loop
      vertex 36.5549 42.8553 6.35
      vertex 35.9711 42.6241 0
      vertex 36.5549 42.8553 0
    endloop
  endfacet
  facet normal -0.481784 0.87629 0
    outer loop
      vertex 40.7791 33.8784 0
      vertex 40.2289 33.5759 6.35
      vertex 40.7791 33.8784 6.35
    endloop
  endfacet
  facet normal -0.481784 0.87629 0
    outer loop
      vertex 40.2289 33.5759 6.35
      vertex 40.7791 33.8784 0
      vertex 40.2289 33.5759 0
    endloop
  endfacet
  facet normal 0.98227 0.187471 0
    outer loop
      vertex 33.2571 36.8566 6.35
      vertex 33.1394 37.4733 0
      vertex 33.1394 37.4733 6.35
    endloop
  endfacet
  facet normal 0.98227 0.187471 0
    outer loop
      vertex 33.1394 37.4733 0
      vertex 33.2571 36.8566 6.35
      vertex 33.2571 36.8566 0
    endloop
  endfacet
  facet normal -0.587698 -0.80908 0
    outer loop
      vertex 40.7791 42.3216 0
      vertex 41.2871 41.9526 6.35
      vertex 40.7791 42.3216 6.35
    endloop
  endfacet
  facet normal -0.587698 -0.80908 -0
    outer loop
      vertex 41.2871 41.9526 6.35
      vertex 40.7791 42.3216 0
      vertex 41.2871 41.9526 0
    endloop
  endfacet
  facet normal 0.587698 0.80908 -0
    outer loop
      vertex 35.4209 33.8784 0
      vertex 34.9129 34.2474 6.35
      vertex 35.4209 33.8784 6.35
    endloop
  endfacet
  facet normal 0.587698 0.80908 0
    outer loop
      vertex 34.9129 34.2474 6.35
      vertex 35.4209 33.8784 0
      vertex 34.9129 34.2474 0
    endloop
  endfacet
  facet normal 0.99803 0.0627451 0
    outer loop
      vertex 33.1394 37.4733 6.35
      vertex 33.1 38.1 0
      vertex 33.1 38.1 6.35
    endloop
  endfacet
  facet normal 0.99803 0.0627451 0
    outer loop
      vertex 33.1 38.1 0
      vertex 33.1394 37.4733 6.35
      vertex 33.1394 37.4733 0
    endloop
  endfacet
  facet normal -0.98227 0.187471 0
    outer loop
      vertex 42.9429 36.8566 0
      vertex 43.0606 37.4733 6.35
      vertex 43.0606 37.4733 0
    endloop
  endfacet
  facet normal -0.98227 0.187471 0
    outer loop
      vertex 43.0606 37.4733 6.35
      vertex 42.9429 36.8566 0
      vertex 42.9429 36.8566 6.35
    endloop
  endfacet
  facet normal 0.481784 -0.87629 0
    outer loop
      vertex 35.4209 42.3216 0
      vertex 35.9711 42.6241 6.35
      vertex 35.4209 42.3216 6.35
    endloop
  endfacet
  facet normal 0.481784 -0.87629 0
    outer loop
      vertex 35.9711 42.6241 6.35
      vertex 35.4209 42.3216 0
      vertex 35.9711 42.6241 0
    endloop
  endfacet
  facet normal 0.587698 -0.80908 0
    outer loop
      vertex 34.9129 41.9526 0
      vertex 35.4209 42.3216 6.35
      vertex 34.9129 41.9526 6.35
    endloop
  endfacet
  facet normal 0.587698 -0.80908 0
    outer loop
      vertex 35.4209 42.3216 6.35
      vertex 34.9129 41.9526 0
      vertex 35.4209 42.3216 0
    endloop
  endfacet
  facet normal 0.904811 -0.425812 0
    outer loop
      vertex 33.4511 39.9406 6.35
      vertex 33.7185 40.5088 0
      vertex 33.7185 40.5088 6.35
    endloop
  endfacet
  facet normal 0.904811 -0.425812 0
    outer loop
      vertex 33.7185 40.5088 0
      vertex 33.4511 39.9406 6.35
      vertex 33.4511 39.9406 0
    endloop
  endfacet
  facet normal 0.98227 -0.187471 0
    outer loop
      vertex 33.1394 38.7267 6.35
      vertex 33.2571 39.3434 0
      vertex 33.2571 39.3434 6.35
    endloop
  endfacet
  facet normal 0.98227 -0.187471 0
    outer loop
      vertex 33.2571 39.3434 0
      vertex 33.1394 38.7267 6.35
      vertex 33.1394 38.7267 0
    endloop
  endfacet
  facet normal 0.248601 0.968606 -0
    outer loop
      vertex 37.1631 33.1886 0
      vertex 36.5549 33.3447 6.35
      vertex 37.1631 33.1886 6.35
    endloop
  endfacet
  facet normal 0.248601 0.968606 0
    outer loop
      vertex 36.5549 33.3447 6.35
      vertex 37.1631 33.1886 0
      vertex 36.5549 33.3447 0
    endloop
  endfacet
  facet normal 0.770462 -0.637486 0
    outer loop
      vertex 34.0549 41.0389 6.35
      vertex 34.4552 41.5227 0
      vertex 34.4552 41.5227 6.35
    endloop
  endfacet
  facet normal 0.770462 -0.637486 0
    outer loop
      vertex 34.4552 41.5227 0
      vertex 34.0549 41.0389 6.35
      vertex 34.0549 41.0389 0
    endloop
  endfacet
endsolid OpenSCAD_Model
