solid OpenSCAD_Model
  facet normal 1 0 0
    outer loop
      vertex 198.438 128.587 6.35
      vertex 198.438 138.113 19.05
      vertex 198.438 128.587 19.05
    endloop
  endfacet
  facet normal 1 0 0
    outer loop
      vertex 198.438 138.113 19.05
      vertex 198.438 128.587 6.35
      vertex 198.438 138.113 0
    endloop
  endfacet
  facet normal 1 0 0
    outer loop
      vertex 198.438 0 0
      vertex 198.438 128.587 6.35
      vertex 198.438 0 6.35
    endloop
  endfacet
  facet normal 1 0 0
    outer loop
      vertex 198.438 128.587 6.35
      vertex 198.438 0 0
      vertex 198.438 138.113 0
    endloop
  endfacet
  facet normal -0 0 1
    outer loop
      vertex 45.2795 9.47652 6.35
      vertex 198.438 0 6.35
      vertex 198.438 128.587 6.35
    endloop
  endfacet
  facet normal 0 0 1
    outer loop
      vertex 198.438 0 6.35
      vertex 46.0062 7.64117 6.35
      vertex 46.0375 7.14375 6.35
    endloop
  endfacet
  facet normal 0 0 1
    outer loop
      vertex 198.438 0 6.35
      vertex 45.9128 8.13074 6.35
      vertex 46.0062 7.64117 6.35
    endloop
  endfacet
  facet normal 0 0 1
    outer loop
      vertex 198.438 0 6.35
      vertex 45.7588 8.60474 6.35
      vertex 45.9128 8.13074 6.35
    endloop
  endfacet
  facet normal 0 0 1
    outer loop
      vertex 198.438 0 6.35
      vertex 45.5466 9.05571 6.35
      vertex 45.7588 8.60474 6.35
    endloop
  endfacet
  facet normal 0 0 1
    outer loop
      vertex 198.438 0 6.35
      vertex 45.2795 9.47652 6.35
      vertex 45.5466 9.05571 6.35
    endloop
  endfacet
  facet normal 0 0 1
    outer loop
      vertex 198.438 128.587 6.35
      vertex 44.9618 9.86055 6.35
      vertex 45.2795 9.47652 6.35
    endloop
  endfacet
  facet normal 0 0 1
    outer loop
      vertex 198.438 128.587 6.35
      vertex 44.5985 10.2017 6.35
      vertex 44.9618 9.86055 6.35
    endloop
  endfacet
  facet normal 0 0 1
    outer loop
      vertex 198.438 128.587 6.35
      vertex 44.1953 10.4947 6.35
      vertex 44.5985 10.2017 6.35
    endloop
  endfacet
  facet normal -0 0 1
    outer loop
      vertex 0 128.587 6.35
      vertex 44.1953 10.4947 6.35
      vertex 198.438 128.587 6.35
    endloop
  endfacet
  facet normal 0 0 1
    outer loop
      vertex 44.1953 10.4947 6.35
      vertex 0 128.587 6.35
      vertex 43.7586 10.7348 6.35
    endloop
  endfacet
  facet normal 0 0 1
    outer loop
      vertex 43.7586 10.7348 6.35
      vertex 0 128.587 6.35
      vertex 43.2952 10.9183 6.35
    endloop
  endfacet
  facet normal 0 0 1
    outer loop
      vertex 43.2952 10.9183 6.35
      vertex 0 128.587 6.35
      vertex 42.8124 11.0422 6.35
    endloop
  endfacet
  facet normal 0 0 1
    outer loop
      vertex 42.8124 11.0422 6.35
      vertex 0 128.587 6.35
      vertex 42.3179 11.1047 6.35
    endloop
  endfacet
  facet normal 0 0 1
    outer loop
      vertex 42.3179 11.1047 6.35
      vertex 0 128.587 6.35
      vertex 3.71955 11.1047 6.35
    endloop
  endfacet
  facet normal 0 0 1
    outer loop
      vertex 3.71955 11.1047 6.35
      vertex 0 128.587 6.35
      vertex 3.22508 11.0422 6.35
    endloop
  endfacet
  facet normal 0 0 1
    outer loop
      vertex 3.22508 11.0422 6.35
      vertex 0 128.587 6.35
      vertex 2.74234 10.9183 6.35
    endloop
  endfacet
  facet normal 0 0 1
    outer loop
      vertex 2.74234 10.9183 6.35
      vertex 0 128.587 6.35
      vertex 2.27894 10.7348 6.35
    endloop
  endfacet
  facet normal 0 0 1
    outer loop
      vertex 2.27894 10.7348 6.35
      vertex 0 128.587 6.35
      vertex 1.84219 10.4947 6.35
    endloop
  endfacet
  facet normal 0 0 1
    outer loop
      vertex 0 128.587 6.35
      vertex 1.43897 10.2017 6.35
      vertex 1.84219 10.4947 6.35
    endloop
  endfacet
  facet normal 0 0 1
    outer loop
      vertex 0 128.587 6.35
      vertex 1.07565 9.86055 6.35
      vertex 1.43897 10.2017 6.35
    endloop
  endfacet
  facet normal 0 0 1
    outer loop
      vertex 0 128.587 6.35
      vertex 0.757963 9.47652 6.35
      vertex 1.07565 9.86055 6.35
    endloop
  endfacet
  facet normal 0 0 1
    outer loop
      vertex 0 128.587 6.35
      vertex 0.490908 9.05571 6.35
      vertex 0.757963 9.47652 6.35
    endloop
  endfacet
  facet normal 0 0 1
    outer loop
      vertex 0 128.587 6.35
      vertex 0.278699 8.60474 6.35
      vertex 0.490908 9.05571 6.35
    endloop
  endfacet
  facet normal 0 0 1
    outer loop
      vertex 0 128.587 6.35
      vertex 0.124685 8.13074 6.35
      vertex 0.278699 8.60474 6.35
    endloop
  endfacet
  facet normal 0 0 1
    outer loop
      vertex 0 128.587 6.35
      vertex 0.0312939 7.64117 6.35
      vertex 0.124685 8.13074 6.35
    endloop
  endfacet
  facet normal 0 0 1
    outer loop
      vertex 0.0312939 7.64117 6.35
      vertex 0 128.587 6.35
      vertex 0 7.14375 6.35
    endloop
  endfacet
  facet normal -0 0 1
    outer loop
      vertex 46.0375 3.96875 6.35
      vertex 198.438 0 6.35
      vertex 46.0375 7.14375 6.35
    endloop
  endfacet
  facet normal -0 0 1
    outer loop
      vertex 46.0062 3.47133 6.35
      vertex 198.438 0 6.35
      vertex 46.0375 3.96875 6.35
    endloop
  endfacet
  facet normal -0 0 1
    outer loop
      vertex 45.9128 2.98176 6.35
      vertex 198.438 0 6.35
      vertex 46.0062 3.47133 6.35
    endloop
  endfacet
  facet normal -0 0 1
    outer loop
      vertex 45.7588 2.50776 6.35
      vertex 198.438 0 6.35
      vertex 45.9128 2.98176 6.35
    endloop
  endfacet
  facet normal -0 0 1
    outer loop
      vertex 45.5466 2.05679 6.35
      vertex 198.438 0 6.35
      vertex 45.7588 2.50776 6.35
    endloop
  endfacet
  facet normal -0 0 1
    outer loop
      vertex 45.2795 1.63598 6.35
      vertex 198.438 0 6.35
      vertex 45.5466 2.05679 6.35
    endloop
  endfacet
  facet normal -0 0 1
    outer loop
      vertex 44.9618 1.25195 6.35
      vertex 198.438 0 6.35
      vertex 45.2795 1.63598 6.35
    endloop
  endfacet
  facet normal -0 0 1
    outer loop
      vertex 44.5985 0.910775 6.35
      vertex 198.438 0 6.35
      vertex 44.9618 1.25195 6.35
    endloop
  endfacet
  facet normal -0 0 1
    outer loop
      vertex 44.1953 0.617823 6.35
      vertex 198.438 0 6.35
      vertex 44.5985 0.910775 6.35
    endloop
  endfacet
  facet normal -0 0 1
    outer loop
      vertex 43.7586 0.377717 6.35
      vertex 198.438 0 6.35
      vertex 44.1953 0.617823 6.35
    endloop
  endfacet
  facet normal -0 0 1
    outer loop
      vertex 43.2952 0.194244 6.35
      vertex 198.438 0 6.35
      vertex 43.7586 0.377717 6.35
    endloop
  endfacet
  facet normal -0 0 1
    outer loop
      vertex 42.8124 0.0702972 6.35
      vertex 198.438 0 6.35
      vertex 43.2952 0.194244 6.35
    endloop
  endfacet
  facet normal -0 0 1
    outer loop
      vertex 42.3179 0.00783062 6.35
      vertex 198.438 0 6.35
      vertex 42.8124 0.0702972 6.35
    endloop
  endfacet
  facet normal -0 0 1
    outer loop
      vertex 3.71955 0.00783062 6.35
      vertex 198.438 0 6.35
      vertex 42.3179 0.00783062 6.35
    endloop
  endfacet
  facet normal 0 0 1
    outer loop
      vertex 3.71955 0.00783062 6.35
      vertex 0 0 6.35
      vertex 198.438 0 6.35
    endloop
  endfacet
  facet normal 0 0 1
    outer loop
      vertex 3.22508 0.0702972 6.35
      vertex 0 0 6.35
      vertex 3.71955 0.00783062 6.35
    endloop
  endfacet
  facet normal 0 0 1
    outer loop
      vertex 2.74234 0.194244 6.35
      vertex 0 0 6.35
      vertex 3.22508 0.0702972 6.35
    endloop
  endfacet
  facet normal 0 0 1
    outer loop
      vertex 2.27894 0.377717 6.35
      vertex 0 0 6.35
      vertex 2.74234 0.194244 6.35
    endloop
  endfacet
  facet normal 0 0 1
    outer loop
      vertex 1.84219 0.617823 6.35
      vertex 0 0 6.35
      vertex 2.27894 0.377717 6.35
    endloop
  endfacet
  facet normal 0 0 1
    outer loop
      vertex 1.43897 0.910775 6.35
      vertex 0 0 6.35
      vertex 1.84219 0.617823 6.35
    endloop
  endfacet
  facet normal 0 0 1
    outer loop
      vertex 1.07565 1.25195 6.35
      vertex 0 0 6.35
      vertex 1.43897 0.910775 6.35
    endloop
  endfacet
  facet normal 0 0 1
    outer loop
      vertex 0.757963 1.63598 6.35
      vertex 0 0 6.35
      vertex 1.07565 1.25195 6.35
    endloop
  endfacet
  facet normal 0 0 1
    outer loop
      vertex 0.490908 2.05679 6.35
      vertex 0 0 6.35
      vertex 0.757963 1.63598 6.35
    endloop
  endfacet
  facet normal 0 0 1
    outer loop
      vertex 0.278699 2.50776 6.35
      vertex 0 0 6.35
      vertex 0.490908 2.05679 6.35
    endloop
  endfacet
  facet normal 0 0 1
    outer loop
      vertex 0.124685 2.98176 6.35
      vertex 0 0 6.35
      vertex 0.278699 2.50776 6.35
    endloop
  endfacet
  facet normal 0 0 1
    outer loop
      vertex 0.0312939 3.47133 6.35
      vertex 0 0 6.35
      vertex 0.124685 2.98176 6.35
    endloop
  endfacet
  facet normal 0 0 1
    outer loop
      vertex 0 0 6.35
      vertex 0.0312939 3.47133 6.35
      vertex 0 3.96875 6.35
    endloop
  endfacet
  facet normal 0 0 -1
    outer loop
      vertex 46.0375 7.14375 0
      vertex 198.438 0 0
      vertex 46.0375 3.96875 0
    endloop
  endfacet
  facet normal 0 0 -1
    outer loop
      vertex 198.438 0 0
      vertex 46.0062 3.47133 0
      vertex 46.0375 3.96875 0
    endloop
  endfacet
  facet normal 0 0 -1
    outer loop
      vertex 198.438 0 0
      vertex 45.9128 2.98176 0
      vertex 46.0062 3.47133 0
    endloop
  endfacet
  facet normal 0 0 -1
    outer loop
      vertex 198.438 0 0
      vertex 45.7588 2.50776 0
      vertex 45.9128 2.98176 0
    endloop
  endfacet
  facet normal 0 0 -1
    outer loop
      vertex 198.438 0 0
      vertex 45.5466 2.05679 0
      vertex 45.7588 2.50776 0
    endloop
  endfacet
  facet normal 0 0 -1
    outer loop
      vertex 198.438 0 0
      vertex 45.2795 1.63598 0
      vertex 45.5466 2.05679 0
    endloop
  endfacet
  facet normal 0 0 -1
    outer loop
      vertex 198.438 0 0
      vertex 44.9618 1.25195 0
      vertex 45.2795 1.63598 0
    endloop
  endfacet
  facet normal 0 0 -1
    outer loop
      vertex 198.438 0 0
      vertex 44.5985 0.910775 0
      vertex 44.9618 1.25195 0
    endloop
  endfacet
  facet normal 0 0 -1
    outer loop
      vertex 198.438 0 0
      vertex 44.1953 0.617823 0
      vertex 44.5985 0.910775 0
    endloop
  endfacet
  facet normal 0 0 -1
    outer loop
      vertex 198.438 0 0
      vertex 43.7586 0.377717 0
      vertex 44.1953 0.617823 0
    endloop
  endfacet
  facet normal 0 0 -1
    outer loop
      vertex 198.438 0 0
      vertex 43.2952 0.194244 0
      vertex 43.7586 0.377717 0
    endloop
  endfacet
  facet normal 0 0 -1
    outer loop
      vertex 198.438 0 0
      vertex 42.8124 0.0702972 0
      vertex 43.2952 0.194244 0
    endloop
  endfacet
  facet normal 0 0 -1
    outer loop
      vertex 198.438 0 0
      vertex 42.3179 0.00783062 0
      vertex 42.8124 0.0702972 0
    endloop
  endfacet
  facet normal 0 0 -1
    outer loop
      vertex 198.438 0 0
      vertex 3.71955 0.00783062 0
      vertex 42.3179 0.00783062 0
    endloop
  endfacet
  facet normal 0 0 -1
    outer loop
      vertex 0 0 0
      vertex 3.71955 0.00783062 0
      vertex 198.438 0 0
    endloop
  endfacet
  facet normal 0 0 -1
    outer loop
      vertex 0 0 0
      vertex 3.22508 0.0702972 0
      vertex 3.71955 0.00783062 0
    endloop
  endfacet
  facet normal 0 0 -1
    outer loop
      vertex 0 0 0
      vertex 2.74234 0.194244 0
      vertex 3.22508 0.0702972 0
    endloop
  endfacet
  facet normal 0 0 -1
    outer loop
      vertex 0 0 0
      vertex 2.27894 0.377717 0
      vertex 2.74234 0.194244 0
    endloop
  endfacet
  facet normal 0 0 -1
    outer loop
      vertex 0 0 0
      vertex 1.84219 0.617823 0
      vertex 2.27894 0.377717 0
    endloop
  endfacet
  facet normal 0 0 -1
    outer loop
      vertex 0 0 0
      vertex 1.43897 0.910775 0
      vertex 1.84219 0.617823 0
    endloop
  endfacet
  facet normal 0 0 -1
    outer loop
      vertex 0 0 0
      vertex 1.07565 1.25195 0
      vertex 1.43897 0.910775 0
    endloop
  endfacet
  facet normal 0 0 -1
    outer loop
      vertex 0 0 0
      vertex 0.757963 1.63598 0
      vertex 1.07565 1.25195 0
    endloop
  endfacet
  facet normal 0 0 -1
    outer loop
      vertex 0 0 0
      vertex 0.490908 2.05679 0
      vertex 0.757963 1.63598 0
    endloop
  endfacet
  facet normal 0 0 -1
    outer loop
      vertex 0 0 0
      vertex 0.278699 2.50776 0
      vertex 0.490908 2.05679 0
    endloop
  endfacet
  facet normal 0 0 -1
    outer loop
      vertex 0 0 0
      vertex 0.124685 2.98176 0
      vertex 0.278699 2.50776 0
    endloop
  endfacet
  facet normal 0 0 -1
    outer loop
      vertex 0 0 0
      vertex 0.0312939 3.47133 0
      vertex 0.124685 2.98176 0
    endloop
  endfacet
  facet normal -0 0 -1
    outer loop
      vertex 0.0312939 3.47133 0
      vertex 0 0 0
      vertex 0 3.96875 0
    endloop
  endfacet
  facet normal 0 0 -1
    outer loop
      vertex 46.0062 7.64117 0
      vertex 198.438 0 0
      vertex 46.0375 7.14375 0
    endloop
  endfacet
  facet normal 0 0 -1
    outer loop
      vertex 45.9128 8.13074 0
      vertex 198.438 0 0
      vertex 46.0062 7.64117 0
    endloop
  endfacet
  facet normal 0 0 -1
    outer loop
      vertex 45.7588 8.60474 0
      vertex 198.438 0 0
      vertex 45.9128 8.13074 0
    endloop
  endfacet
  facet normal 0 0 -1
    outer loop
      vertex 45.5466 9.05571 0
      vertex 198.438 0 0
      vertex 45.7588 8.60474 0
    endloop
  endfacet
  facet normal 0 0 -1
    outer loop
      vertex 45.2795 9.47652 0
      vertex 198.438 0 0
      vertex 45.5466 9.05571 0
    endloop
  endfacet
  facet normal 0 0 -1
    outer loop
      vertex 198.438 0 0
      vertex 45.2795 9.47652 0
      vertex 198.438 138.113 0
    endloop
  endfacet
  facet normal 0 0 -1
    outer loop
      vertex 44.9618 9.86055 0
      vertex 198.438 138.113 0
      vertex 45.2795 9.47652 0
    endloop
  endfacet
  facet normal 0 0 -1
    outer loop
      vertex 44.5985 10.2017 0
      vertex 198.438 138.113 0
      vertex 44.9618 9.86055 0
    endloop
  endfacet
  facet normal 0 0 -1
    outer loop
      vertex 44.1953 10.4947 0
      vertex 198.438 138.113 0
      vertex 44.5985 10.2017 0
    endloop
  endfacet
  facet normal 0 0 -1
    outer loop
      vertex 0 138.113 0
      vertex 44.1953 10.4947 0
      vertex 43.7586 10.7348 0
    endloop
  endfacet
  facet normal 0 0 -1
    outer loop
      vertex 0 138.113 0
      vertex 43.7586 10.7348 0
      vertex 43.2952 10.9183 0
    endloop
  endfacet
  facet normal 0 0 -1
    outer loop
      vertex 0 138.113 0
      vertex 43.2952 10.9183 0
      vertex 42.8124 11.0422 0
    endloop
  endfacet
  facet normal 0 0 -1
    outer loop
      vertex 0 138.113 0
      vertex 42.8124 11.0422 0
      vertex 42.3179 11.1047 0
    endloop
  endfacet
  facet normal 0 0 -1
    outer loop
      vertex 0 138.113 0
      vertex 42.3179 11.1047 0
      vertex 3.71955 11.1047 0
    endloop
  endfacet
  facet normal 0 0 -1
    outer loop
      vertex 0 138.113 0
      vertex 3.71955 11.1047 0
      vertex 3.22508 11.0422 0
    endloop
  endfacet
  facet normal 0 0 -1
    outer loop
      vertex 0 138.113 0
      vertex 3.22508 11.0422 0
      vertex 2.74234 10.9183 0
    endloop
  endfacet
  facet normal 0 0 -1
    outer loop
      vertex 0 138.113 0
      vertex 2.74234 10.9183 0
      vertex 2.27894 10.7348 0
    endloop
  endfacet
  facet normal 0 0 -1
    outer loop
      vertex 0 138.113 0
      vertex 2.27894 10.7348 0
      vertex 1.84219 10.4947 0
    endloop
  endfacet
  facet normal 0 0 -1
    outer loop
      vertex 44.1953 10.4947 0
      vertex 0 138.113 0
      vertex 198.438 138.113 0
    endloop
  endfacet
  facet normal 0 0 -1
    outer loop
      vertex 1.43897 10.2017 0
      vertex 0 138.113 0
      vertex 1.84219 10.4947 0
    endloop
  endfacet
  facet normal 0 0 -1
    outer loop
      vertex 1.07565 9.86055 0
      vertex 0 138.113 0
      vertex 1.43897 10.2017 0
    endloop
  endfacet
  facet normal 0 0 -1
    outer loop
      vertex 0.757963 9.47652 0
      vertex 0 138.113 0
      vertex 1.07565 9.86055 0
    endloop
  endfacet
  facet normal 0 0 -1
    outer loop
      vertex 0.490908 9.05571 0
      vertex 0 138.113 0
      vertex 0.757963 9.47652 0
    endloop
  endfacet
  facet normal 0 0 -1
    outer loop
      vertex 0.278699 8.60474 0
      vertex 0 138.113 0
      vertex 0.490908 9.05571 0
    endloop
  endfacet
  facet normal 0 0 -1
    outer loop
      vertex 0.124685 8.13074 0
      vertex 0 138.113 0
      vertex 0.278699 8.60474 0
    endloop
  endfacet
  facet normal 0 0 -1
    outer loop
      vertex 0.0312939 7.64117 0
      vertex 0 138.113 0
      vertex 0.124685 8.13074 0
    endloop
  endfacet
  facet normal 0 0 -1
    outer loop
      vertex 0 138.113 0
      vertex 0.0312939 7.64117 0
      vertex 0 7.14375 0
    endloop
  endfacet
  facet normal -1 0 0
    outer loop
      vertex 0 138.113 0
      vertex 0 128.587 6.35
      vertex 0 138.113 19.05
    endloop
  endfacet
  facet normal -1 0 0
    outer loop
      vertex 0 7.14375 0
      vertex 0 128.587 6.35
      vertex 0 138.113 0
    endloop
  endfacet
  facet normal -1 -0 0
    outer loop
      vertex 0 128.587 6.35
      vertex 0 7.14375 0
      vertex 0 7.14375 6.35
    endloop
  endfacet
  facet normal -1 -0 0
    outer loop
      vertex 0 138.113 19.05
      vertex 0 128.587 6.35
      vertex 0 128.587 19.05
    endloop
  endfacet
  facet normal -1 0 0
    outer loop
      vertex 0 0 0
      vertex 0 3.96875 6.35
      vertex 0 3.96875 0
    endloop
  endfacet
  facet normal -1 -0 0
    outer loop
      vertex 0 3.96875 6.35
      vertex 0 0 0
      vertex 0 0 6.35
    endloop
  endfacet
  facet normal 0 1 -0
    outer loop
      vertex 198.438 138.113 0
      vertex 0 138.113 19.05
      vertex 198.438 138.113 19.05
    endloop
  endfacet
  facet normal 0 1 0
    outer loop
      vertex 0 138.113 19.05
      vertex 198.438 138.113 0
      vertex 0 138.113 0
    endloop
  endfacet
  facet normal 0 -1 0
    outer loop
      vertex 0 0 0
      vertex 198.438 0 6.35
      vertex 0 0 6.35
    endloop
  endfacet
  facet normal 0 -1 -0
    outer loop
      vertex 198.438 0 6.35
      vertex 0 0 0
      vertex 198.438 0 0
    endloop
  endfacet
  facet normal 0.24869 0.968583 -0
    outer loop
      vertex 3.22508 0.0702972 0
      vertex 2.74234 0.194244 6.35
      vertex 3.22508 0.0702972 6.35
    endloop
  endfacet
  facet normal 0.24869 0.968583 0
    outer loop
      vertex 2.74234 0.194244 6.35
      vertex 3.22508 0.0702972 0
      vertex 2.74234 0.194244 0
    endloop
  endfacet
  facet normal 0 -1 0
    outer loop
      vertex 3.71955 11.1047 0
      vertex 42.3179 11.1047 6.35
      vertex 3.71955 11.1047 6.35
    endloop
  endfacet
  facet normal 0 -1 -0
    outer loop
      vertex 42.3179 11.1047 6.35
      vertex 3.71955 11.1047 0
      vertex 42.3179 11.1047 0
    endloop
  endfacet
  facet normal -0.587861 -0.808962 0
    outer loop
      vertex 44.1953 10.4947 0
      vertex 44.5985 10.2017 6.35
      vertex 44.1953 10.4947 6.35
    endloop
  endfacet
  facet normal -0.587861 -0.808962 -0
    outer loop
      vertex 44.5985 10.2017 6.35
      vertex 44.1953 10.4947 0
      vertex 44.5985 10.2017 0
    endloop
  endfacet
  facet normal -0.684562 0.728955 0
    outer loop
      vertex 44.9618 1.25195 0
      vertex 44.5985 0.910775 6.35
      vertex 44.9618 1.25195 6.35
    endloop
  endfacet
  facet normal -0.684562 0.728955 0
    outer loop
      vertex 44.5985 0.910775 6.35
      vertex 44.9618 1.25195 0
      vertex 44.5985 0.910775 0
    endloop
  endfacet
  facet normal -0.125393 -0.992107 0
    outer loop
      vertex 42.3179 11.1047 0
      vertex 42.8124 11.0422 6.35
      vertex 42.3179 11.1047 6.35
    endloop
  endfacet
  facet normal -0.125393 -0.992107 -0
    outer loop
      vertex 42.8124 11.0422 6.35
      vertex 42.3179 11.1047 0
      vertex 42.8124 11.0422 0
    endloop
  endfacet
  facet normal 0.770523 -0.637412 0
    outer loop
      vertex 0.757963 9.47652 6.35
      vertex 1.07565 9.86055 0
      vertex 1.07565 9.86055 6.35
    endloop
  endfacet
  facet normal 0.770523 -0.637412 0
    outer loop
      vertex 1.07565 9.86055 0
      vertex 0.757963 9.47652 6.35
      vertex 0.757963 9.47652 0
    endloop
  endfacet
  facet normal 0.481745 -0.876311 0
    outer loop
      vertex 1.84219 10.4947 0
      vertex 2.27894 10.7348 6.35
      vertex 1.84219 10.4947 6.35
    endloop
  endfacet
  facet normal 0.481745 -0.876311 0
    outer loop
      vertex 2.27894 10.7348 6.35
      vertex 1.84219 10.4947 0
      vertex 2.27894 10.7348 0
    endloop
  endfacet
  facet normal 0.1254 -0.992106 0
    outer loop
      vertex 3.22508 11.0422 0
      vertex 3.71955 11.1047 6.35
      vertex 3.22508 11.0422 6.35
    endloop
  endfacet
  facet normal 0.1254 -0.992106 0
    outer loop
      vertex 3.71955 11.1047 6.35
      vertex 3.22508 11.0422 0
      vertex 3.71955 11.1047 0
    endloop
  endfacet
  facet normal 0.481755 0.876306 -0
    outer loop
      vertex 2.27894 0.377717 0
      vertex 1.84219 0.617823 6.35
      vertex 2.27894 0.377717 6.35
    endloop
  endfacet
  facet normal 0.481755 0.876306 0
    outer loop
      vertex 1.84219 0.617823 6.35
      vertex 2.27894 0.377717 0
      vertex 1.84219 0.617823 0
    endloop
  endfacet
  facet normal -0.982284 0.1874 0
    outer loop
      vertex 45.9128 2.98176 0
      vertex 46.0062 3.47133 6.35
      vertex 46.0062 3.47133 0
    endloop
  endfacet
  facet normal -0.982284 0.1874 0
    outer loop
      vertex 46.0062 3.47133 6.35
      vertex 45.9128 2.98176 0
      vertex 45.9128 2.98176 6.35
    endloop
  endfacet
  facet normal 0.844327 0.535828 0
    outer loop
      vertex 0.757963 1.63598 6.35
      vertex 0.490908 2.05679 0
      vertex 0.490908 2.05679 6.35
    endloop
  endfacet
  facet normal 0.844327 0.535828 0
    outer loop
      vertex 0.490908 2.05679 0
      vertex 0.757963 1.63598 6.35
      vertex 0.757963 1.63598 0
    endloop
  endfacet
  facet normal -1 0 0
    outer loop
      vertex 46.0375 3.96875 0
      vertex 46.0375 7.14375 6.35
      vertex 46.0375 7.14375 0
    endloop
  endfacet
  facet normal -1 -0 0
    outer loop
      vertex 46.0375 7.14375 6.35
      vertex 46.0375 3.96875 0
      vertex 46.0375 3.96875 6.35
    endloop
  endfacet
  facet normal 0 1 -0
    outer loop
      vertex 42.3179 0.00783062 0
      vertex 3.71955 0.00783062 6.35
      vertex 42.3179 0.00783062 6.35
    endloop
  endfacet
  facet normal 0 1 0
    outer loop
      vertex 3.71955 0.00783062 6.35
      vertex 42.3179 0.00783062 0
      vertex 3.71955 0.00783062 0
    endloop
  endfacet
  facet normal -0.125327 0.992116 0
    outer loop
      vertex 42.8124 0.0702972 0
      vertex 42.3179 0.00783062 6.35
      vertex 42.8124 0.0702972 6.35
    endloop
  endfacet
  facet normal -0.125327 0.992116 0
    outer loop
      vertex 42.3179 0.00783062 6.35
      vertex 42.8124 0.0702972 0
      vertex 42.3179 0.00783062 0
    endloop
  endfacet
  facet normal 0.368171 -0.929758 0
    outer loop
      vertex 2.27894 10.7348 0
      vertex 2.74234 10.9183 6.35
      vertex 2.27894 10.7348 6.35
    endloop
  endfacet
  facet normal 0.368171 -0.929758 0
    outer loop
      vertex 2.74234 10.9183 6.35
      vertex 2.27894 10.7348 0
      vertex 2.74234 10.9183 0
    endloop
  endfacet
  facet normal -0.844286 -0.535892 0
    outer loop
      vertex 45.5466 9.05571 0
      vertex 45.2795 9.47652 6.35
      vertex 45.2795 9.47652 0
    endloop
  endfacet
  facet normal -0.844286 -0.535892 0
    outer loop
      vertex 45.2795 9.47652 6.35
      vertex 45.5466 9.05571 0
      vertex 45.5466 9.05571 6.35
    endloop
  endfacet
  facet normal -0.904835 -0.425762 0
    outer loop
      vertex 45.7588 8.60474 0
      vertex 45.5466 9.05571 6.35
      vertex 45.5466 9.05571 0
    endloop
  endfacet
  facet normal -0.904835 -0.425762 0
    outer loop
      vertex 45.5466 9.05571 6.35
      vertex 45.7588 8.60474 0
      vertex 45.7588 8.60474 6.35
    endloop
  endfacet
  facet normal 0.125334 0.992115 -0
    outer loop
      vertex 3.71955 0.00783062 0
      vertex 3.22508 0.0702972 6.35
      vertex 3.71955 0.00783062 6.35
    endloop
  endfacet
  facet normal 0.125334 0.992115 0
    outer loop
      vertex 3.22508 0.0702972 6.35
      vertex 3.71955 0.00783062 0
      vertex 3.22508 0.0702972 0
    endloop
  endfacet
  facet normal 0.770523 0.637412 0
    outer loop
      vertex 1.07565 1.25195 6.35
      vertex 0.757963 1.63598 0
      vertex 0.757963 1.63598 6.35
    endloop
  endfacet
  facet normal 0.770523 0.637412 0
    outer loop
      vertex 0.757963 1.63598 0
      vertex 1.07565 1.25195 6.35
      vertex 1.07565 1.25195 0
    endloop
  endfacet
  facet normal 0.904828 0.425777 0
    outer loop
      vertex 0.490908 2.05679 6.35
      vertex 0.278699 2.50776 0
      vertex 0.278699 2.50776 6.35
    endloop
  endfacet
  facet normal 0.904828 0.425777 0
    outer loop
      vertex 0.278699 2.50776 0
      vertex 0.490908 2.05679 6.35
      vertex 0.490908 2.05679 0
    endloop
  endfacet
  facet normal -0.982284 -0.1874 0
    outer loop
      vertex 46.0062 7.64117 0
      vertex 45.9128 8.13074 6.35
      vertex 45.9128 8.13074 0
    endloop
  endfacet
  facet normal -0.982284 -0.1874 0
    outer loop
      vertex 45.9128 8.13074 6.35
      vertex 46.0062 7.64117 0
      vertex 46.0062 7.64117 6.35
    endloop
  endfacet
  facet normal 0.368124 0.929777 -0
    outer loop
      vertex 2.74234 0.194244 0
      vertex 2.27894 0.377717 6.35
      vertex 2.74234 0.194244 6.35
    endloop
  endfacet
  facet normal 0.368124 0.929777 0
    outer loop
      vertex 2.27894 0.377717 6.35
      vertex 2.74234 0.194244 0
      vertex 2.27894 0.377717 0
    endloop
  endfacet
  facet normal -0.951064 -0.308995 0
    outer loop
      vertex 45.9128 8.13074 0
      vertex 45.7588 8.60474 6.35
      vertex 45.7588 8.60474 0
    endloop
  endfacet
  facet normal -0.951064 -0.308995 0
    outer loop
      vertex 45.7588 8.60474 6.35
      vertex 45.9128 8.13074 0
      vertex 45.9128 8.13074 6.35
    endloop
  endfacet
  facet normal 0.248602 -0.968606 0
    outer loop
      vertex 2.74234 10.9183 0
      vertex 3.22508 11.0422 6.35
      vertex 2.74234 10.9183 6.35
    endloop
  endfacet
  facet normal 0.248602 -0.968606 0
    outer loop
      vertex 3.22508 11.0422 6.35
      vertex 2.74234 10.9183 0
      vertex 3.22508 11.0422 0
    endloop
  endfacet
  facet normal 0.684515 -0.728999 0
    outer loop
      vertex 1.07565 9.86055 0
      vertex 1.43897 10.2017 6.35
      vertex 1.07565 9.86055 6.35
    endloop
  endfacet
  facet normal 0.684515 -0.728999 0
    outer loop
      vertex 1.43897 10.2017 6.35
      vertex 1.07565 9.86055 0
      vertex 1.43897 10.2017 0
    endloop
  endfacet
  facet normal -0.368171 -0.929758 0
    outer loop
      vertex 43.2952 10.9183 0
      vertex 43.7586 10.7348 6.35
      vertex 43.2952 10.9183 6.35
    endloop
  endfacet
  facet normal -0.368171 -0.929758 -0
    outer loop
      vertex 43.7586 10.7348 6.35
      vertex 43.2952 10.9183 0
      vertex 43.7586 10.7348 0
    endloop
  endfacet
  facet normal 0.951055 -0.309021 0
    outer loop
      vertex 0.124685 8.13074 6.35
      vertex 0.278699 8.60474 0
      vertex 0.278699 8.60474 6.35
    endloop
  endfacet
  facet normal 0.951055 -0.309021 0
    outer loop
      vertex 0.278699 8.60474 0
      vertex 0.124685 8.13074 6.35
      vertex 0.124685 8.13074 0
    endloop
  endfacet
  facet normal -0.684535 -0.72898 0
    outer loop
      vertex 44.5985 10.2017 0
      vertex 44.9618 9.86055 6.35
      vertex 44.5985 10.2017 6.35
    endloop
  endfacet
  facet normal -0.684535 -0.72898 -0
    outer loop
      vertex 44.9618 9.86055 6.35
      vertex 44.5985 10.2017 0
      vertex 44.9618 9.86055 0
    endloop
  endfacet
  facet normal 0.998027 -0.0627883 0
    outer loop
      vertex 0 7.14375 6.35
      vertex 0.0312939 7.64117 0
      vertex 0.0312939 7.64117 6.35
    endloop
  endfacet
  facet normal 0.998027 -0.0627883 0
    outer loop
      vertex 0.0312939 7.64117 0
      vertex 0 7.14375 6.35
      vertex 0 7.14375 0
    endloop
  endfacet
  facet normal -0.951064 0.308995 0
    outer loop
      vertex 45.7588 2.50776 0
      vertex 45.9128 2.98176 6.35
      vertex 45.9128 2.98176 0
    endloop
  endfacet
  facet normal -0.951064 0.308995 0
    outer loop
      vertex 45.9128 2.98176 6.35
      vertex 45.7588 2.50776 0
      vertex 45.7588 2.50776 6.35
    endloop
  endfacet
  facet normal -0.844286 0.535892 0
    outer loop
      vertex 45.2795 1.63598 0
      vertex 45.5466 2.05679 6.35
      vertex 45.5466 2.05679 0
    endloop
  endfacet
  facet normal -0.844286 0.535892 0
    outer loop
      vertex 45.5466 2.05679 6.35
      vertex 45.2795 1.63598 0
      vertex 45.2795 1.63598 6.35
    endloop
  endfacet
  facet normal -0.904835 0.425762 0
    outer loop
      vertex 45.5466 2.05679 0
      vertex 45.7588 2.50776 6.35
      vertex 45.7588 2.50776 0
    endloop
  endfacet
  facet normal -0.904835 0.425762 0
    outer loop
      vertex 45.7588 2.50776 6.35
      vertex 45.5466 2.05679 0
      vertex 45.5466 2.05679 6.35
    endloop
  endfacet
  facet normal 0.844327 -0.535828 0
    outer loop
      vertex 0.490908 9.05571 6.35
      vertex 0.757963 9.47652 0
      vertex 0.757963 9.47652 6.35
    endloop
  endfacet
  facet normal 0.844327 -0.535828 0
    outer loop
      vertex 0.757963 9.47652 0
      vertex 0.490908 9.05571 6.35
      vertex 0.490908 9.05571 0
    endloop
  endfacet
  facet normal 0.587779 0.809021 -0
    outer loop
      vertex 1.84219 0.617823 0
      vertex 1.43897 0.910775 6.35
      vertex 1.84219 0.617823 6.35
    endloop
  endfacet
  facet normal 0.587779 0.809021 0
    outer loop
      vertex 1.43897 0.910775 6.35
      vertex 1.84219 0.617823 0
      vertex 1.43897 0.910775 0
    endloop
  endfacet
  facet normal -0.248661 0.96859 0
    outer loop
      vertex 43.2952 0.194244 0
      vertex 42.8124 0.0702972 6.35
      vertex 43.2952 0.194244 6.35
    endloop
  endfacet
  facet normal -0.248661 0.96859 0
    outer loop
      vertex 42.8124 0.0702972 6.35
      vertex 43.2952 0.194244 0
      vertex 42.8124 0.0702972 0
    endloop
  endfacet
  facet normal -0.481797 0.876283 0
    outer loop
      vertex 44.1953 0.617823 0
      vertex 43.7586 0.377717 6.35
      vertex 44.1953 0.617823 6.35
    endloop
  endfacet
  facet normal -0.481797 0.876283 0
    outer loop
      vertex 43.7586 0.377717 6.35
      vertex 44.1953 0.617823 0
      vertex 43.7586 0.377717 0
    endloop
  endfacet
  facet normal 0.684542 0.728974 -0
    outer loop
      vertex 1.43897 0.910775 0
      vertex 1.07565 1.25195 6.35
      vertex 1.43897 0.910775 6.35
    endloop
  endfacet
  facet normal 0.684542 0.728974 0
    outer loop
      vertex 1.07565 1.25195 6.35
      vertex 1.43897 0.910775 0
      vertex 1.07565 1.25195 0
    endloop
  endfacet
  facet normal 0.998027 0.0627883 0
    outer loop
      vertex 0.0312939 3.47133 6.35
      vertex 0 3.96875 0
      vertex 0 3.96875 6.35
    endloop
  endfacet
  facet normal 0.998027 0.0627883 0
    outer loop
      vertex 0 3.96875 0
      vertex 0.0312939 3.47133 6.35
      vertex 0.0312939 3.47133 0
    endloop
  endfacet
  facet normal -0.248573 -0.968613 0
    outer loop
      vertex 42.8124 11.0422 0
      vertex 43.2952 10.9183 6.35
      vertex 42.8124 11.0422 6.35
    endloop
  endfacet
  facet normal -0.248573 -0.968613 -0
    outer loop
      vertex 43.2952 10.9183 6.35
      vertex 42.8124 11.0422 0
      vertex 43.2952 10.9183 0
    endloop
  endfacet
  facet normal -0.770511 0.637427 0
    outer loop
      vertex 44.9618 1.25195 0
      vertex 45.2795 1.63598 6.35
      vertex 45.2795 1.63598 0
    endloop
  endfacet
  facet normal -0.770511 0.637427 0
    outer loop
      vertex 45.2795 1.63598 6.35
      vertex 44.9618 1.25195 0
      vertex 44.9618 1.25195 6.35
    endloop
  endfacet
  facet normal -0.481788 -0.876288 0
    outer loop
      vertex 43.7586 10.7348 0
      vertex 44.1953 10.4947 6.35
      vertex 43.7586 10.7348 6.35
    endloop
  endfacet
  facet normal -0.481788 -0.876288 -0
    outer loop
      vertex 44.1953 10.4947 6.35
      vertex 43.7586 10.7348 0
      vertex 44.1953 10.4947 0
    endloop
  endfacet
  facet normal 0.587842 -0.808975 0
    outer loop
      vertex 1.43897 10.2017 0
      vertex 1.84219 10.4947 6.35
      vertex 1.43897 10.2017 6.35
    endloop
  endfacet
  facet normal 0.587842 -0.808975 0
    outer loop
      vertex 1.84219 10.4947 6.35
      vertex 1.43897 10.2017 0
      vertex 1.84219 10.4947 0
    endloop
  endfacet
  facet normal -0.770511 -0.637427 0
    outer loop
      vertex 45.2795 9.47652 0
      vertex 44.9618 9.86055 6.35
      vertex 44.9618 9.86055 0
    endloop
  endfacet
  facet normal -0.770511 -0.637427 0
    outer loop
      vertex 44.9618 9.86055 6.35
      vertex 45.2795 9.47652 0
      vertex 45.2795 9.47652 6.35
    endloop
  endfacet
  facet normal 0.982287 -0.187383 0
    outer loop
      vertex 0.0312939 7.64117 6.35
      vertex 0.124685 8.13074 0
      vertex 0.124685 8.13074 6.35
    endloop
  endfacet
  facet normal 0.982287 -0.187383 0
    outer loop
      vertex 0.124685 8.13074 0
      vertex 0.0312939 7.64117 6.35
      vertex 0.0312939 7.64117 0
    endloop
  endfacet
  facet normal 0.904828 -0.425777 0
    outer loop
      vertex 0.278699 8.60474 6.35
      vertex 0.490908 9.05571 0
      vertex 0.490908 9.05571 6.35
    endloop
  endfacet
  facet normal 0.904828 -0.425777 0
    outer loop
      vertex 0.490908 9.05571 0
      vertex 0.278699 8.60474 6.35
      vertex 0.278699 8.60474 0
    endloop
  endfacet
  facet normal -0.998026 0.0628005 0
    outer loop
      vertex 46.0062 3.47133 0
      vertex 46.0375 3.96875 6.35
      vertex 46.0375 3.96875 0
    endloop
  endfacet
  facet normal -0.998026 0.0628005 0
    outer loop
      vertex 46.0375 3.96875 6.35
      vertex 46.0062 3.47133 0
      vertex 46.0062 3.47133 6.35
    endloop
  endfacet
  facet normal -0.368124 0.929777 0
    outer loop
      vertex 43.7586 0.377717 0
      vertex 43.2952 0.194244 6.35
      vertex 43.7586 0.377717 6.35
    endloop
  endfacet
  facet normal -0.368124 0.929777 0
    outer loop
      vertex 43.2952 0.194244 6.35
      vertex 43.7586 0.377717 0
      vertex 43.2952 0.194244 0
    endloop
  endfacet
  facet normal -0.587798 0.809007 0
    outer loop
      vertex 44.5985 0.910775 0
      vertex 44.1953 0.617823 6.35
      vertex 44.5985 0.910775 6.35
    endloop
  endfacet
  facet normal -0.587798 0.809007 0
    outer loop
      vertex 44.1953 0.617823 6.35
      vertex 44.5985 0.910775 0
      vertex 44.1953 0.617823 0
    endloop
  endfacet
  facet normal -0.998026 -0.0628005 0
    outer loop
      vertex 46.0375 7.14375 0
      vertex 46.0062 7.64117 6.35
      vertex 46.0062 7.64117 0
    endloop
  endfacet
  facet normal -0.998026 -0.0628005 0
    outer loop
      vertex 46.0062 7.64117 6.35
      vertex 46.0375 7.14375 0
      vertex 46.0375 7.14375 6.35
    endloop
  endfacet
  facet normal 0.951055 0.309021 0
    outer loop
      vertex 0.278699 2.50776 6.35
      vertex 0.124685 2.98176 0
      vertex 0.124685 2.98176 6.35
    endloop
  endfacet
  facet normal 0.951055 0.309021 0
    outer loop
      vertex 0.124685 2.98176 0
      vertex 0.278699 2.50776 6.35
      vertex 0.278699 2.50776 0
    endloop
  endfacet
  facet normal 0.982287 0.187383 0
    outer loop
      vertex 0.124685 2.98176 6.35
      vertex 0.0312939 3.47133 0
      vertex 0.0312939 3.47133 6.35
    endloop
  endfacet
  facet normal 0.982287 0.187383 0
    outer loop
      vertex 0.0312939 3.47133 0
      vertex 0.124685 2.98176 6.35
      vertex 0.124685 2.98176 0
    endloop
  endfacet
  facet normal -0 0 1
    outer loop
      vertex 0 138.113 19.05
      vertex 198.438 128.587 19.05
      vertex 198.438 138.113 19.05
    endloop
  endfacet
  facet normal 0 0 1
    outer loop
      vertex 198.438 128.587 19.05
      vertex 0 138.113 19.05
      vertex 0 128.587 19.05
    endloop
  endfacet
  facet normal 0 -1 0
    outer loop
      vertex 0 128.587 6.35
      vertex 198.438 128.587 19.05
      vertex 0 128.587 19.05
    endloop
  endfacet
  facet normal 0 -1 -0
    outer loop
      vertex 198.438 128.587 19.05
      vertex 0 128.587 6.35
      vertex 198.438 128.587 6.35
    endloop
  endfacet
endsolid OpenSCAD_Model
